<svg xmlns="http://www.w3.org/2000/svg" xmlns:xlink="http://www.w3.org/1999/xlink" width="50" zoomAndPan="magnify" viewBox="0 0 37.5 37.499999" height="50" preserveAspectRatio="xMidYMid meet" version="1.0"><defs><g/><clipPath id="406058e0e8"><path d="M 0 0 L 37.007812 0 L 37.007812 37.007812 L 0 37.007812 Z M 0 0 " clip-rule="nonzero"/></clipPath><clipPath id="a7eb923912"><path d="M 8.871094 20.804688 L 18.039062 20.804688 L 18.039062 21.824219 L 8.871094 21.824219 Z M 8.871094 20.804688 " clip-rule="nonzero"/></clipPath><clipPath id="dab252a817"><path d="M 19.234375 15.011719 L 28.398438 15.011719 L 28.398438 16.03125 L 19.234375 16.03125 Z M 19.234375 15.011719 " clip-rule="nonzero"/></clipPath></defs><g clip-path="url(#406058e0e8)"><path fill="#ffffff" d="M 0 0 L 37.007812 0 L 37.007812 37.007812 L 0 37.007812 Z M 0 0 " fill-opacity="1" fill-rule="nonzero"/><path fill="#000000" d="M 0 0 L 37.007812 0 L 37.007812 37.007812 L 0 37.007812 Z M 0 0 " fill-opacity="1" fill-rule="nonzero"/></g><g clip-path="url(#a7eb923912)"><path fill="#ffffff" d="M 8.871094 20.804688 L 18.039062 20.804688 L 18.039062 21.824219 L 8.871094 21.824219 Z M 8.871094 20.804688 " fill-opacity="1" fill-rule="nonzero"/></g><g clip-path="url(#dab252a817)"><path fill="#ffffff" d="M 19.234375 15.011719 L 28.398438 15.011719 L 28.398438 16.03125 L 19.234375 16.03125 Z M 19.234375 15.011719 " fill-opacity="1" fill-rule="nonzero"/></g><g fill="#ffffff" fill-opacity="1"><g transform="translate(8.486421, 19.058766)"><g><path d="M 2.390625 0.078125 C 1.972656 0.078125 1.601562 -0.0078125 1.28125 -0.1875 C 0.957031 -0.375 0.703125 -0.628906 0.515625 -0.953125 C 0.335938 -1.273438 0.25 -1.648438 0.25 -2.078125 C 0.25 -2.492188 0.335938 -2.863281 0.515625 -3.1875 C 0.703125 -3.507812 0.957031 -3.765625 1.28125 -3.953125 C 1.601562 -4.140625 1.972656 -4.234375 2.390625 -4.234375 C 2.742188 -4.234375 3.066406 -4.164062 3.359375 -4.03125 C 3.648438 -3.894531 3.894531 -3.703125 4.09375 -3.453125 C 4.289062 -3.210938 4.429688 -2.925781 4.515625 -2.59375 L 3.546875 -2.59375 C 3.460938 -2.820312 3.316406 -3 3.109375 -3.125 C 2.910156 -3.257812 2.679688 -3.328125 2.421875 -3.328125 C 2.191406 -3.328125 1.984375 -3.273438 1.796875 -3.171875 C 1.609375 -3.066406 1.460938 -2.921875 1.359375 -2.734375 C 1.265625 -2.546875 1.21875 -2.328125 1.21875 -2.078125 C 1.21875 -1.828125 1.265625 -1.601562 1.359375 -1.40625 C 1.460938 -1.21875 1.601562 -1.070312 1.78125 -0.96875 C 1.96875 -0.863281 2.179688 -0.8125 2.421875 -0.8125 C 2.691406 -0.8125 2.925781 -0.878906 3.125 -1.015625 C 3.332031 -1.160156 3.484375 -1.351562 3.578125 -1.59375 L 4.546875 -1.59375 C 4.472656 -1.25 4.335938 -0.953125 4.140625 -0.703125 C 3.941406 -0.453125 3.691406 -0.257812 3.390625 -0.125 C 3.085938 0.0078125 2.753906 0.078125 2.390625 0.078125 Z M 2.390625 0.078125 "/></g></g></g><g fill="#ffffff" fill-opacity="1"><g transform="translate(14.48832, 19.058766)"><g><path d="M 0.5 0 L 0.5 -4.140625 L 2.125 -4.140625 C 2.457031 -4.140625 2.742188 -4.078125 2.984375 -3.953125 C 3.234375 -3.835938 3.425781 -3.664062 3.5625 -3.4375 C 3.695312 -3.21875 3.765625 -2.953125 3.765625 -2.640625 C 3.765625 -2.347656 3.695312 -2.085938 3.5625 -1.859375 C 3.425781 -1.628906 3.234375 -1.453125 2.984375 -1.328125 C 2.742188 -1.210938 2.457031 -1.15625 2.125 -1.15625 L 1.4375 -1.15625 L 1.4375 0 Z M 1.4375 -1.96875 L 2.046875 -1.96875 C 2.285156 -1.96875 2.472656 -2.023438 2.609375 -2.140625 C 2.742188 -2.253906 2.8125 -2.421875 2.8125 -2.640625 C 2.8125 -2.859375 2.742188 -3.023438 2.609375 -3.140625 C 2.472656 -3.265625 2.285156 -3.328125 2.046875 -3.328125 L 1.4375 -3.328125 Z M 1.4375 -1.96875 "/></g></g></g><g fill="#ffffff" fill-opacity="1"><g transform="translate(18.870613, 21.871694)"><g><path d="M 0.5 0 L 0.5 -4.140625 L 1.296875 -4.140625 L 2.765625 -2 L 4.234375 -4.140625 L 5.03125 -4.140625 L 5.03125 0 L 4.09375 0 L 4.09375 -2.5 L 3.09375 -1.03125 L 2.4375 -1.03125 L 1.4375 -2.5 L 1.4375 0 Z M 0.5 0 "/></g></g></g><g fill="#ffffff" fill-opacity="1"><g transform="translate(25.624191, 21.871694)"><g><path d="M 0.5 0 L 0.5 -4.140625 L 2.125 -4.140625 C 2.457031 -4.140625 2.742188 -4.078125 2.984375 -3.953125 C 3.234375 -3.835938 3.425781 -3.664062 3.5625 -3.4375 C 3.695312 -3.21875 3.765625 -2.953125 3.765625 -2.640625 C 3.765625 -2.347656 3.695312 -2.085938 3.5625 -1.859375 C 3.425781 -1.628906 3.234375 -1.453125 2.984375 -1.328125 C 2.742188 -1.210938 2.457031 -1.15625 2.125 -1.15625 L 1.4375 -1.15625 L 1.4375 0 Z M 1.4375 -1.96875 L 2.046875 -1.96875 C 2.285156 -1.96875 2.472656 -2.023438 2.609375 -2.140625 C 2.742188 -2.253906 2.8125 -2.421875 2.8125 -2.640625 C 2.8125 -2.859375 2.742188 -3.023438 2.609375 -3.140625 C 2.472656 -3.265625 2.285156 -3.328125 2.046875 -3.328125 L 1.4375 -3.328125 Z M 1.4375 -1.96875 "/></g></g></g></svg>