<svg xmlns="http://www.w3.org/2000/svg" xmlns:xlink="http://www.w3.org/1999/xlink" width="50" zoomAndPan="magnify" viewBox="0 0 37.5 37.499999" height="50" preserveAspectRatio="xMidYMid meet" version="1.0"><defs><filter x="0%" y="0%" width="100%" height="100%" id="a1be70b4eb"><feColorMatrix values="0 0 0 0 1 0 0 0 0 1 0 0 0 0 1 0 0 0 1 0" color-interpolation-filters="sRGB"/></filter><g/><clipPath id="421bb36cb9"><path d="M 0 0 L 37.007812 0 L 37.007812 37.007812 L 0 37.007812 Z M 0 0 " clip-rule="nonzero"/></clipPath><clipPath id="8420a74c9b"><path d="M 5.3125 4.964844 L 28.253906 4.964844 L 28.253906 32.347656 L 5.3125 32.347656 Z M 5.3125 4.964844 " clip-rule="nonzero"/></clipPath><clipPath id="94b0ba5c5c"><path d="M 0 0 L 37.007812 0 L 37.007812 36.265625 L 0 36.265625 Z M 0 0 " clip-rule="nonzero"/></clipPath><mask id="0ac4ebe5e5"><g filter="url(#a1be70b4eb)"><rect x="-3.75" width="45" fill="#000000" y="-3.75" height="44.999999" fill-opacity="0.8"/></g></mask><clipPath id="c5cab4e068"><path d="M 9 33 L 18 33 L 18 36.265625 L 9 36.265625 Z M 9 33 " clip-rule="nonzero"/></clipPath><clipPath id="d69e09d047"><path d="M 0 11 L 37 11 L 37 36.265625 L 0 36.265625 Z M 0 11 " clip-rule="nonzero"/></clipPath><clipPath id="cecd986922"><rect x="0" width="38" y="0" height="37"/></clipPath></defs><g clip-path="url(#421bb36cb9)"><path fill="#ffffff" d="M 0 0 L 37.007812 0 L 37.007812 37.007812 L 0 37.007812 Z M 0 0 " fill-opacity="1" fill-rule="nonzero"/><path fill="#2b2b2b" d="M 0 0 L 37.007812 0 L 37.007812 37.007812 L 0 37.007812 Z M 0 0 " fill-opacity="1" fill-rule="nonzero"/></g><g clip-path="url(#8420a74c9b)"><path fill="#f7f7f7" d="M 8.78125 15.625 C 8.804688 15.488281 8.832031 15.351562 8.855469 15.210938 C 8.882812 15.074219 8.910156 14.9375 8.941406 14.800781 C 8.972656 14.664062 9.007812 14.53125 9.039062 14.394531 C 9.074219 14.261719 9.109375 14.125 9.152344 13.992188 C 9.308594 13.457031 9.507812 12.9375 9.746094 12.441406 C 9.988281 11.945312 10.273438 11.472656 10.605469 11.035156 L 10.730469 10.871094 L 10.863281 10.714844 C 10.90625 10.660156 10.953125 10.609375 10.996094 10.558594 L 11.066406 10.480469 L 11.136719 10.40625 C 11.328125 10.207031 11.523438 10.015625 11.734375 9.832031 C 12.148438 9.46875 12.597656 9.152344 13.074219 8.882812 C 13.554688 8.617188 14.0625 8.398438 14.589844 8.238281 C 15.640625 7.910156 16.757812 7.792969 17.871094 7.832031 C 18.425781 7.851562 18.976562 7.914062 19.515625 8.03125 C 20.050781 8.148438 20.574219 8.320312 21.074219 8.546875 C 21.089844 8.550781 21.105469 8.558594 21.121094 8.566406 L 21.167969 8.589844 L 21.257812 8.632812 C 21.320312 8.664062 21.382812 8.695312 21.441406 8.726562 L 21.621094 8.824219 L 21.710938 8.875 L 21.734375 8.890625 L 21.753906 8.902344 L 21.796875 8.929688 C 21.914062 9.003906 22.03125 9.074219 22.140625 9.152344 L 22.308594 9.269531 L 22.554688 9.457031 C 22.566406 9.46875 22.578125 9.480469 22.59375 9.492188 L 22.632812 9.523438 L 22.789062 9.65625 C 22.816406 9.679688 22.84375 9.703125 22.867188 9.726562 L 22.941406 9.792969 C 22.992188 9.839844 23.046875 9.886719 23.09375 9.933594 C 23.289062 10.121094 23.464844 10.328125 23.632812 10.539062 L 23.695312 10.621094 C 23.707031 10.636719 23.71875 10.648438 23.726562 10.660156 L 23.757812 10.703125 L 23.875 10.871094 C 23.949219 10.984375 24.027344 11.097656 24.097656 11.214844 L 24.148438 11.304688 C 24.167969 11.332031 24.183594 11.363281 24.199219 11.390625 L 24.296875 11.574219 C 24.359375 11.695312 24.421875 11.816406 24.480469 11.941406 C 24.539062 12.066406 24.589844 12.195312 24.644531 12.320312 C 24.667969 12.386719 24.691406 12.449219 24.71875 12.515625 L 24.789062 12.710938 L 24.855469 12.90625 L 24.917969 13.105469 L 24.949219 13.203125 L 24.976562 13.304688 L 25.03125 13.503906 L 25.121094 13.8125 L 25.425781 13.742188 L 28 13.121094 L 28.335938 13.042969 L 28.238281 12.71875 L 28.160156 12.453125 L 28.121094 12.324219 L 28.078125 12.191406 C 28.046875 12.105469 28.019531 12.019531 27.992188 11.929688 L 27.898438 11.671875 C 27.867188 11.585938 27.832031 11.5 27.800781 11.414062 L 27.75 11.285156 C 27.742188 11.261719 27.734375 11.242188 27.726562 11.21875 L 27.699219 11.15625 L 27.589844 10.902344 C 27.554688 10.816406 27.515625 10.734375 27.476562 10.648438 C 27.457031 10.609375 27.441406 10.566406 27.417969 10.523438 L 27.359375 10.398438 C 27.316406 10.316406 27.277344 10.234375 27.230469 10.152344 C 27.1875 10.070312 27.144531 9.988281 27.101562 9.90625 L 26.960938 9.667969 C 26.769531 9.347656 26.5625 9.039062 26.332031 8.742188 L 26.160156 8.523438 L 25.976562 8.3125 C 25.847656 8.175781 25.722656 8.039062 25.585938 7.910156 C 25.550781 7.875 25.519531 7.84375 25.484375 7.8125 L 25.382812 7.71875 C 25.316406 7.65625 25.242188 7.59375 25.175781 7.53125 C 25.035156 7.410156 24.890625 7.292969 24.746094 7.179688 C 24.160156 6.726562 23.519531 6.339844 22.847656 6.027344 C 22.175781 5.714844 21.472656 5.476562 20.753906 5.308594 C 20.035156 5.136719 19.304688 5.039062 18.570312 4.996094 C 18.207031 4.972656 17.839844 4.964844 17.472656 4.96875 L 17.335938 4.96875 L 17.265625 4.972656 L 17.199219 4.972656 L 16.925781 4.980469 L 16.648438 4.996094 C 16.605469 5 16.558594 5.003906 16.511719 5.007812 L 16.375 5.015625 C 16.011719 5.046875 15.644531 5.089844 15.28125 5.148438 C 14.917969 5.207031 14.558594 5.28125 14.203125 5.367188 C 13.488281 5.546875 12.789062 5.789062 12.121094 6.105469 C 11.453125 6.417969 10.816406 6.796875 10.226562 7.238281 C 9.929688 7.457031 9.648438 7.691406 9.375 7.941406 C 9.101562 8.191406 8.84375 8.449219 8.597656 8.722656 C 8.347656 8.996094 8.113281 9.277344 7.894531 9.574219 C 7.675781 9.871094 7.472656 10.175781 7.28125 10.492188 C 7.234375 10.570312 7.1875 10.648438 7.144531 10.730469 L 7.078125 10.851562 C 7.054688 10.890625 7.03125 10.929688 7.011719 10.972656 L 6.882812 11.214844 L 6.761719 11.464844 C 6.601562 11.792969 6.460938 12.132812 6.328125 12.476562 C 6.199219 12.816406 6.085938 13.164062 5.984375 13.515625 C 5.882812 13.867188 5.792969 14.222656 5.71875 14.578125 C 5.566406 15.292969 5.464844 16.015625 5.402344 16.738281 C 5.394531 16.785156 5.390625 16.828125 5.386719 16.875 L 5.378906 17.011719 C 5.371094 17.101562 5.363281 17.191406 5.359375 17.28125 L 5.34375 17.554688 L 5.339844 17.621094 L 5.335938 17.691406 L 5.332031 17.828125 C 5.324219 18.007812 5.320312 18.191406 5.316406 18.371094 C 5.316406 18.460938 5.316406 18.550781 5.316406 18.644531 C 5.316406 18.734375 5.3125 18.824219 5.316406 18.914062 L 5.320312 19.1875 L 5.328125 19.460938 C 5.328125 19.503906 5.328125 19.550781 5.332031 19.59375 L 5.339844 19.730469 C 5.34375 19.824219 5.347656 19.914062 5.351562 20.003906 C 5.375 20.367188 5.40625 20.730469 5.449219 21.089844 L 5.484375 21.359375 C 5.496094 21.449219 5.507812 21.539062 5.523438 21.628906 C 5.535156 21.722656 5.550781 21.808594 5.566406 21.898438 C 5.582031 21.988281 5.59375 22.078125 5.613281 22.167969 C 5.675781 22.527344 5.757812 22.882812 5.847656 23.234375 L 5.882812 23.367188 C 5.894531 23.414062 5.90625 23.457031 5.917969 23.5 L 5.957031 23.632812 C 5.96875 23.675781 5.980469 23.71875 5.996094 23.761719 L 6.078125 24.023438 L 6.164062 24.285156 C 6.285156 24.628906 6.417969 24.96875 6.566406 25.300781 C 6.863281 25.96875 7.222656 26.609375 7.640625 27.207031 C 7.847656 27.507812 8.074219 27.796875 8.308594 28.078125 C 8.546875 28.355469 8.796875 28.621094 9.058594 28.875 C 9.582031 29.382812 10.152344 29.84375 10.761719 30.242188 C 11.375 30.640625 12.027344 30.972656 12.707031 31.238281 C 13.382812 31.503906 14.089844 31.699219 14.804688 31.832031 C 15.519531 31.960938 16.242188 32.023438 16.96875 32.035156 L 17.238281 32.035156 C 17.285156 32.039062 17.332031 32.035156 17.375 32.035156 L 17.511719 32.03125 L 17.78125 32.027344 C 17.871094 32.023438 17.964844 32.015625 18.054688 32.011719 C 18.144531 32.007812 18.234375 32.003906 18.324219 31.996094 L 18.597656 31.972656 L 18.730469 31.960938 L 18.796875 31.953125 L 18.867188 31.945312 L 19.136719 31.914062 L 19.269531 31.894531 C 19.316406 31.890625 19.359375 31.882812 19.40625 31.875 L 19.671875 31.832031 C 19.761719 31.820312 19.851562 31.796875 19.941406 31.78125 L 20.207031 31.726562 C 20.296875 31.707031 20.382812 31.6875 20.472656 31.664062 L 20.601562 31.632812 L 20.667969 31.617188 L 20.734375 31.597656 L 20.996094 31.523438 L 21.0625 31.503906 C 21.082031 31.5 21.105469 31.492188 21.125 31.484375 L 21.253906 31.441406 C 21.945312 31.21875 22.613281 30.929688 23.234375 30.554688 L 23.46875 30.417969 C 23.542969 30.367188 23.617188 30.316406 23.695312 30.265625 L 23.808594 30.191406 C 23.816406 30.183594 23.824219 30.179688 23.835938 30.171875 L 23.917969 30.113281 L 24.136719 29.949219 C 24.171875 29.925781 24.207031 29.894531 24.242188 29.867188 L 24.351562 29.785156 L 24.453125 29.695312 L 24.507812 29.652344 L 24.558594 29.609375 L 24.660156 29.519531 C 24.695312 29.488281 24.726562 29.457031 24.761719 29.429688 C 24.828125 29.367188 24.890625 29.304688 24.957031 29.242188 C 25.214844 28.988281 25.457031 28.71875 25.683594 28.4375 C 25.914062 28.15625 26.121094 27.863281 26.316406 27.558594 C 26.367188 27.484375 26.414062 27.40625 26.460938 27.332031 C 26.507812 27.253906 26.550781 27.175781 26.597656 27.097656 C 26.644531 27.019531 26.6875 26.941406 26.730469 26.863281 L 26.792969 26.742188 L 26.828125 26.683594 L 26.859375 26.625 C 27.023438 26.304688 27.171875 25.976562 27.3125 25.644531 C 27.585938 24.980469 27.808594 24.292969 27.992188 23.601562 C 27.796875 24.289062 27.558594 24.96875 27.269531 25.628906 C 27.128906 25.957031 26.972656 26.277344 26.800781 26.59375 L 26.738281 26.710938 L 26.671875 26.828125 C 26.628906 26.90625 26.582031 26.984375 26.535156 27.0625 C 26.488281 27.136719 26.441406 27.214844 26.394531 27.289062 C 26.347656 27.363281 26.300781 27.441406 26.25 27.515625 C 25.851562 28.109375 25.390625 28.664062 24.875 29.15625 C 24.808594 29.214844 24.746094 29.277344 24.675781 29.335938 C 24.644531 29.363281 24.613281 29.394531 24.578125 29.421875 L 24.476562 29.511719 L 24.425781 29.554688 L 24.371094 29.59375 L 24.269531 29.679688 L 24.164062 29.761719 C 24.125 29.789062 24.089844 29.816406 24.054688 29.839844 L 23.753906 30.054688 C 23.746094 30.058594 23.738281 30.066406 23.726562 30.070312 L 23.617188 30.144531 C 23.539062 30.191406 23.464844 30.242188 23.390625 30.289062 L 23.160156 30.421875 C 22.542969 30.777344 21.878906 31.054688 21.199219 31.261719 L 21.074219 31.304688 C 21.050781 31.308594 21.03125 31.316406 21.007812 31.320312 L 20.945312 31.339844 L 20.6875 31.40625 L 20.621094 31.425781 L 20.558594 31.441406 L 20.425781 31.46875 C 20.339844 31.488281 20.253906 31.507812 20.167969 31.527344 L 19.902344 31.578125 C 19.816406 31.59375 19.730469 31.609375 19.640625 31.621094 L 19.375 31.660156 C 19.332031 31.667969 19.289062 31.675781 19.242188 31.679688 L 19.109375 31.695312 L 18.84375 31.722656 L 18.777344 31.730469 L 18.710938 31.734375 L 18.578125 31.746094 L 18.3125 31.765625 C 18.222656 31.769531 18.132812 31.773438 18.046875 31.777344 C 17.957031 31.78125 17.867188 31.785156 17.777344 31.789062 L 17.511719 31.789062 L 17.378906 31.792969 C 17.332031 31.792969 17.289062 31.792969 17.242188 31.792969 L 16.976562 31.785156 C 16.265625 31.765625 15.554688 31.691406 14.859375 31.558594 C 14.160156 31.421875 13.476562 31.222656 12.820312 30.957031 C 12.164062 30.691406 11.535156 30.359375 10.949219 29.964844 C 10.359375 29.570312 9.8125 29.117188 9.3125 28.621094 C 9.058594 28.371094 8.820312 28.109375 8.59375 27.839844 C 8.367188 27.566406 8.152344 27.285156 7.953125 26.992188 C 7.558594 26.410156 7.214844 25.789062 6.9375 25.140625 C 6.796875 24.816406 6.667969 24.484375 6.554688 24.152344 L 6.472656 23.898438 L 6.398438 23.644531 C 6.386719 23.601562 6.375 23.558594 6.363281 23.515625 L 6.328125 23.390625 C 6.316406 23.347656 6.304688 23.304688 6.292969 23.261719 L 6.261719 23.132812 C 6.175781 22.789062 6.101562 22.441406 6.039062 22.09375 C 6.023438 22.007812 6.011719 21.917969 5.996094 21.832031 C 5.984375 21.742188 5.96875 21.65625 5.957031 21.566406 C 5.945312 21.480469 5.933594 21.390625 5.921875 21.304688 L 5.890625 21.039062 C 5.855469 20.6875 5.824219 20.332031 5.808594 19.980469 C 5.800781 19.890625 5.800781 19.800781 5.796875 19.714844 L 5.789062 19.582031 C 5.789062 19.535156 5.789062 19.492188 5.789062 19.445312 L 5.78125 19.179688 L 5.78125 18.914062 C 5.78125 18.824219 5.78125 18.738281 5.78125 18.648438 C 5.785156 18.558594 5.785156 18.46875 5.785156 18.378906 C 5.792969 18.203125 5.796875 18.023438 5.804688 17.847656 L 5.8125 17.714844 L 5.8125 17.648438 L 5.820312 17.582031 L 5.835938 17.316406 C 5.839844 17.226562 5.847656 17.136719 5.855469 17.050781 L 5.867188 16.917969 C 5.871094 16.871094 5.875 16.828125 5.878906 16.785156 C 5.949219 16.078125 6.054688 15.375 6.207031 14.683594 C 6.28125 14.339844 6.371094 13.996094 6.472656 13.660156 C 6.574219 13.320312 6.683594 12.988281 6.8125 12.660156 C 6.9375 12.332031 7.078125 12.007812 7.230469 11.691406 L 7.472656 11.222656 C 7.496094 11.183594 7.515625 11.144531 7.539062 11.109375 L 7.601562 10.992188 C 7.644531 10.917969 7.691406 10.84375 7.738281 10.765625 C 7.917969 10.46875 8.117188 10.175781 8.324219 9.898438 C 8.535156 9.617188 8.761719 9.347656 9 9.089844 C 9.472656 8.574219 9.996094 8.101562 10.558594 7.6875 C 11.125 7.273438 11.726562 6.914062 12.363281 6.621094 C 12.996094 6.328125 13.664062 6.101562 14.34375 5.933594 C 14.683594 5.851562 15.027344 5.785156 15.375 5.730469 C 15.722656 5.675781 16.070312 5.636719 16.421875 5.609375 L 16.554688 5.601562 C 16.597656 5.597656 16.644531 5.59375 16.6875 5.589844 L 16.949219 5.578125 L 17.214844 5.570312 L 17.28125 5.570312 L 17.347656 5.566406 L 17.480469 5.566406 C 17.832031 5.566406 18.183594 5.574219 18.535156 5.597656 C 19.234375 5.644531 19.933594 5.742188 20.613281 5.902344 C 21.292969 6.066406 21.957031 6.292969 22.585938 6.589844 C 23.214844 6.886719 23.8125 7.25 24.359375 7.679688 C 24.496094 7.785156 24.628906 7.894531 24.761719 8.011719 C 24.828125 8.066406 24.894531 8.125 24.957031 8.183594 L 25.050781 8.273438 C 25.082031 8.304688 25.113281 8.332031 25.144531 8.363281 C 25.269531 8.480469 25.386719 8.609375 25.5 8.734375 L 25.667969 8.929688 L 25.828125 9.132812 C 26.039062 9.40625 26.234375 9.695312 26.410156 9.996094 L 26.539062 10.21875 L 26.664062 10.449219 C 26.707031 10.527344 26.742188 10.605469 26.78125 10.683594 L 26.839844 10.800781 C 26.859375 10.839844 26.875 10.878906 26.894531 10.917969 C 26.929688 11 26.964844 11.078125 27 11.160156 L 27.101562 11.402344 L 27.128906 11.460938 C 27.136719 11.480469 27.144531 11.503906 27.152344 11.523438 L 27.199219 11.644531 C 27.230469 11.726562 27.261719 11.808594 27.289062 11.890625 L 27.378906 12.140625 C 27.40625 12.222656 27.433594 12.308594 27.460938 12.390625 L 27.5 12.515625 L 27.515625 12.570312 L 25.582031 13.03125 L 25.578125 13.019531 L 25.546875 12.914062 L 25.480469 12.703125 L 25.40625 12.492188 L 25.371094 12.386719 L 25.332031 12.285156 C 25.304688 12.214844 25.28125 12.144531 25.253906 12.074219 C 25.195312 11.9375 25.140625 11.800781 25.078125 11.667969 C 25.015625 11.53125 24.949219 11.398438 24.878906 11.265625 C 24.84375 11.199219 24.808594 11.132812 24.773438 11.070312 C 24.753906 11.035156 24.738281 11.003906 24.71875 10.972656 L 24.660156 10.875 C 24.585938 10.746094 24.503906 10.621094 24.421875 10.496094 L 24.289062 10.3125 L 24.257812 10.265625 C 24.246094 10.25 24.234375 10.238281 24.222656 10.222656 L 24.15625 10.132812 C 23.96875 9.894531 23.769531 9.667969 23.554688 9.460938 C 23.503906 9.40625 23.445312 9.355469 23.390625 9.304688 L 23.308594 9.230469 C 23.28125 9.203125 23.25 9.179688 23.222656 9.15625 L 23.054688 9.011719 L 23.011719 8.972656 C 22.996094 8.960938 22.980469 8.953125 22.96875 8.941406 L 22.878906 8.871094 L 22.703125 8.734375 L 22.519531 8.605469 C 22.398438 8.515625 22.269531 8.441406 22.140625 8.359375 L 22.09375 8.332031 L 22.046875 8.300781 L 21.753906 8.136719 C 21.6875 8.101562 21.621094 8.070312 21.550781 8.039062 L 21.453125 7.988281 L 21.402344 7.960938 C 21.382812 7.953125 21.367188 7.949219 21.351562 7.941406 C 20.804688 7.691406 20.234375 7.507812 19.65625 7.378906 C 19.074219 7.253906 18.484375 7.183594 17.894531 7.164062 C 17.746094 7.160156 17.597656 7.15625 17.453125 7.15625 L 17.230469 7.160156 C 17.15625 7.160156 17.082031 7.164062 17.011719 7.164062 C 16.714844 7.175781 16.421875 7.199219 16.128906 7.234375 C 16.054688 7.242188 15.980469 7.25 15.90625 7.261719 L 15.6875 7.292969 L 15.46875 7.332031 C 15.394531 7.34375 15.324219 7.359375 15.25 7.375 C 14.960938 7.4375 14.671875 7.511719 14.386719 7.597656 C 13.820312 7.773438 13.269531 8.007812 12.75 8.300781 C 12.226562 8.589844 11.738281 8.9375 11.292969 9.328125 C 11.066406 9.527344 10.855469 9.734375 10.652344 9.949219 L 10.574219 10.03125 L 10.539062 10.070312 L 10.5 10.113281 C 10.449219 10.167969 10.402344 10.222656 10.351562 10.28125 L 10.210938 10.453125 L 10.074219 10.628906 C 9.710938 11.105469 9.402344 11.617188 9.144531 12.148438 C 8.890625 12.683594 8.679688 13.238281 8.515625 13.804688 C 8.472656 13.945312 8.433594 14.085938 8.398438 14.226562 C 8.363281 14.371094 8.324219 14.511719 8.292969 14.65625 C 8.261719 14.800781 8.234375 14.941406 8.203125 15.085938 C 8.179688 15.230469 8.152344 15.375 8.128906 15.519531 C 8.035156 16.097656 7.976562 16.675781 7.941406 17.257812 C 7.90625 17.839844 7.894531 18.421875 7.902344 19 C 7.90625 19.144531 7.910156 19.292969 7.914062 19.4375 L 7.925781 19.652344 L 7.9375 19.871094 L 7.941406 19.980469 L 7.964844 20.308594 L 7.984375 20.523438 C 7.988281 20.5625 7.992188 20.597656 7.996094 20.632812 L 8.007812 20.742188 C 8.066406 21.324219 8.15625 21.902344 8.277344 22.472656 C 8.402344 23.046875 8.5625 23.613281 8.769531 24.164062 C 8.976562 24.71875 9.230469 25.253906 9.53125 25.765625 C 9.835938 26.277344 10.195312 26.757812 10.601562 27.191406 C 11.003906 27.625 11.449219 28.019531 11.929688 28.371094 C 12.410156 28.71875 12.929688 29.015625 13.476562 29.25 C 14.019531 29.488281 14.589844 29.664062 15.171875 29.785156 C 15.75 29.90625 16.339844 29.96875 16.929688 29.984375 C 17.515625 30 18.105469 29.972656 18.691406 29.890625 L 18.910156 29.859375 L 19.128906 29.820312 C 19.164062 29.816406 19.199219 29.804688 19.238281 29.800781 L 19.34375 29.777344 L 19.453125 29.753906 C 19.492188 29.746094 19.527344 29.738281 19.5625 29.726562 L 19.777344 29.671875 C 19.8125 29.664062 19.851562 29.65625 19.886719 29.644531 L 19.992188 29.613281 L 20.203125 29.546875 L 20.414062 29.472656 L 20.519531 29.4375 C 20.539062 29.429688 20.554688 29.425781 20.574219 29.417969 L 20.625 29.398438 L 20.832031 29.3125 C 20.867188 29.300781 20.898438 29.285156 20.933594 29.269531 L 21.136719 29.175781 L 21.1875 29.15625 L 21.238281 29.128906 L 21.4375 29.027344 L 21.484375 29 C 21.503906 28.992188 21.519531 28.984375 21.535156 28.976562 L 21.632812 28.917969 L 21.730469 28.863281 C 21.761719 28.84375 21.792969 28.828125 21.824219 28.808594 L 22.015625 28.6875 C 22.046875 28.667969 22.078125 28.648438 22.109375 28.628906 L 22.199219 28.5625 C 22.261719 28.519531 22.320312 28.480469 22.382812 28.433594 L 22.558594 28.300781 L 22.648438 28.230469 L 22.730469 28.160156 L 22.902344 28.011719 C 22.957031 27.964844 23.011719 27.910156 23.066406 27.859375 C 23.175781 27.761719 23.277344 27.652344 23.382812 27.546875 L 23.421875 27.503906 L 23.457031 27.464844 L 23.53125 27.378906 L 23.605469 27.296875 L 23.640625 27.253906 L 23.660156 27.230469 L 23.816406 27.035156 L 23.882812 26.949219 L 23.949219 26.859375 L 24.078125 26.679688 C 24.101562 26.652344 24.121094 26.621094 24.140625 26.589844 L 24.203125 26.496094 C 24.242188 26.433594 24.285156 26.371094 24.324219 26.308594 L 24.4375 26.121094 C 24.738281 25.613281 24.992188 25.082031 25.203125 24.535156 C 25.414062 23.988281 25.585938 23.429688 25.730469 22.867188 L 25.792969 22.621094 L 25.554688 22.546875 L 23.027344 21.757812 L 22.761719 21.671875 L 22.699219 21.945312 C 22.605469 22.351562 22.496094 22.757812 22.363281 23.152344 C 22.230469 23.546875 22.074219 23.933594 21.890625 24.300781 C 21.703125 24.671875 21.484375 25.023438 21.234375 25.34375 L 21.1875 25.40625 C 21.171875 25.425781 21.15625 25.445312 21.136719 25.464844 L 21.039062 25.578125 L 20.988281 25.636719 L 20.933594 25.691406 L 20.828125 25.800781 C 20.792969 25.835938 20.757812 25.871094 20.71875 25.90625 C 20.683594 25.941406 20.644531 25.976562 20.605469 26.007812 L 20.488281 26.109375 C 20.46875 26.125 20.449219 26.140625 20.429688 26.15625 L 20.367188 26.203125 C 20.289062 26.265625 20.203125 26.324219 20.121094 26.382812 C 20.109375 26.390625 20.101562 26.398438 20.089844 26.40625 L 20.058594 26.425781 L 19.992188 26.46875 L 19.929688 26.507812 C 19.917969 26.515625 19.90625 26.523438 19.898438 26.53125 L 19.863281 26.546875 L 19.730469 26.625 C 19.710938 26.636719 19.6875 26.648438 19.664062 26.660156 L 19.597656 26.695312 C 19.507812 26.746094 19.414062 26.785156 19.320312 26.828125 C 19.132812 26.90625 18.941406 26.980469 18.746094 27.035156 C 18.648438 27.066406 18.550781 27.085938 18.449219 27.113281 C 18.425781 27.121094 18.398438 27.125 18.375 27.128906 L 18.300781 27.144531 C 18.25 27.152344 18.199219 27.164062 18.148438 27.171875 C 17.746094 27.238281 17.332031 27.257812 16.917969 27.242188 C 16.503906 27.226562 16.09375 27.171875 15.695312 27.074219 C 15.292969 26.976562 14.90625 26.832031 14.539062 26.648438 C 14.175781 26.460938 13.832031 26.230469 13.515625 25.964844 C 13.359375 25.832031 13.207031 25.6875 13.066406 25.539062 C 12.992188 25.464844 12.921875 25.390625 12.855469 25.308594 C 12.820312 25.273438 12.789062 25.230469 12.753906 25.191406 C 12.738281 25.171875 12.722656 25.152344 12.707031 25.132812 L 12.660156 25.070312 C 12.410156 24.746094 12.199219 24.386719 12.027344 24.011719 C 11.851562 23.632812 11.710938 23.238281 11.59375 22.835938 C 11.539062 22.632812 11.484375 22.429688 11.4375 22.226562 C 11.414062 22.125 11.394531 22.019531 11.375 21.917969 L 11.34375 21.761719 C 11.335938 21.710938 11.324219 21.65625 11.316406 21.605469 C 11.246094 21.191406 11.191406 20.769531 11.152344 20.347656 C 11.113281 19.925781 11.089844 19.503906 11.078125 19.082031 C 11.050781 18.230469 11.0625 17.382812 11.136719 16.539062 L 11.15625 16.378906 L 11.1875 16.066406 L 11.210938 15.90625 L 11.21875 15.828125 L 11.253906 15.59375 L 11.28125 15.4375 L 11.292969 15.359375 L 11.308594 15.28125 C 11.382812 14.867188 11.480469 14.457031 11.609375 14.054688 L 11.65625 13.902344 L 11.707031 13.753906 C 11.726562 13.703125 11.746094 13.65625 11.761719 13.605469 L 11.789062 13.53125 L 11.820312 13.460938 C 11.898438 13.265625 11.984375 13.074219 12.082031 12.886719 C 12.273438 12.515625 12.503906 12.160156 12.773438 11.84375 C 13.046875 11.523438 13.351562 11.230469 13.679688 10.972656 C 14.011719 10.714844 14.375 10.496094 14.757812 10.320312 C 15.136719 10.148438 15.539062 10.015625 15.953125 9.929688 C 16.367188 9.839844 16.785156 9.796875 17.210938 9.785156 C 17.421875 9.777344 17.632812 9.785156 17.84375 9.796875 L 18.003906 9.808594 L 18.082031 9.816406 C 18.109375 9.816406 18.132812 9.820312 18.160156 9.824219 L 18.316406 9.84375 C 18.371094 9.851562 18.421875 9.859375 18.472656 9.867188 L 18.550781 9.878906 C 18.578125 9.886719 18.605469 9.890625 18.628906 9.894531 L 18.785156 9.929688 C 18.835938 9.941406 18.886719 9.953125 18.9375 9.964844 L 19.015625 9.984375 C 19.042969 9.992188 19.066406 10 19.09375 10.007812 L 19.242188 10.050781 L 19.394531 10.105469 C 19.417969 10.113281 19.445312 10.121094 19.46875 10.128906 L 19.542969 10.160156 C 19.59375 10.179688 19.640625 10.195312 19.691406 10.21875 C 19.785156 10.261719 19.882812 10.300781 19.976562 10.351562 L 20.085938 10.40625 L 20.117188 10.425781 L 20.257812 10.5 C 20.28125 10.515625 20.300781 10.527344 20.324219 10.542969 L 20.394531 10.585938 L 20.460938 10.625 C 20.484375 10.640625 20.503906 10.65625 20.527344 10.671875 L 20.65625 10.761719 L 20.785156 10.855469 L 20.847656 10.902344 L 20.910156 10.953125 C 20.949219 10.988281 20.992188 11.019531 21.03125 11.054688 C 21.109375 11.125 21.191406 11.195312 21.265625 11.269531 L 21.351562 11.355469 C 21.359375 11.363281 21.371094 11.375 21.378906 11.382812 L 21.488281 11.5 C 21.503906 11.519531 21.523438 11.539062 21.539062 11.558594 L 21.589844 11.621094 C 21.625 11.660156 21.660156 11.699219 21.691406 11.742188 L 21.789062 11.867188 C 21.820312 11.910156 21.851562 11.957031 21.882812 12 L 21.929688 12.0625 L 21.972656 12.128906 C 22 12.175781 22.03125 12.21875 22.058594 12.265625 C 22.113281 12.355469 22.167969 12.445312 22.214844 12.542969 L 22.253906 12.613281 C 22.265625 12.636719 22.277344 12.660156 22.289062 12.683594 L 22.359375 12.828125 C 22.382812 12.875 22.402344 12.925781 22.421875 12.972656 L 22.453125 13.046875 C 22.464844 13.070312 22.476562 13.097656 22.484375 13.121094 C 22.523438 13.222656 22.5625 13.320312 22.59375 13.421875 C 22.667969 13.621094 22.722656 13.828125 22.773438 14.035156 C 22.726562 13.828125 22.675781 13.621094 22.609375 13.417969 C 22.578125 13.316406 22.539062 13.214844 22.503906 13.113281 C 22.496094 13.089844 22.484375 13.0625 22.472656 13.039062 L 22.445312 12.964844 C 22.425781 12.914062 22.40625 12.863281 22.382812 12.816406 L 22.316406 12.671875 C 22.304688 12.644531 22.292969 12.621094 22.28125 12.597656 L 22.246094 12.527344 C 22.199219 12.429688 22.144531 12.335938 22.089844 12.246094 C 22.0625 12.199219 22.035156 12.152344 22.007812 12.109375 L 21.964844 12.039062 L 21.917969 11.972656 C 21.890625 11.929688 21.859375 11.882812 21.828125 11.839844 L 21.730469 11.710938 C 21.699219 11.667969 21.664062 11.625 21.632812 11.585938 L 21.582031 11.523438 C 21.5625 11.503906 21.546875 11.480469 21.527344 11.460938 L 21.421875 11.34375 C 21.410156 11.332031 21.402344 11.320312 21.394531 11.3125 L 21.308594 11.226562 C 21.234375 11.148438 21.152344 11.078125 21.074219 11.003906 C 21.035156 10.96875 20.996094 10.933594 20.953125 10.898438 L 20.828125 10.796875 L 20.703125 10.699219 L 20.570312 10.605469 C 20.546875 10.589844 20.527344 10.570312 20.503906 10.558594 L 20.4375 10.515625 L 20.367188 10.46875 C 20.34375 10.457031 20.324219 10.441406 20.300781 10.425781 L 20.160156 10.347656 L 20.125 10.324219 L 20.089844 10.308594 L 20.019531 10.269531 C 19.921875 10.21875 19.824219 10.175781 19.726562 10.128906 C 19.679688 10.105469 19.628906 10.085938 19.578125 10.066406 L 19.503906 10.035156 C 19.480469 10.023438 19.453125 10.015625 19.425781 10.007812 L 19.277344 9.953125 L 19.121094 9.902344 C 19.09375 9.894531 19.070312 9.886719 19.042969 9.878906 L 18.964844 9.859375 C 18.914062 9.84375 18.863281 9.832031 18.808594 9.816406 L 18.652344 9.78125 C 18.625 9.777344 18.597656 9.769531 18.570312 9.765625 L 18.492188 9.75 C 18.441406 9.742188 18.386719 9.730469 18.332031 9.722656 L 18.171875 9.699219 C 18.144531 9.695312 18.121094 9.691406 18.09375 9.691406 L 18.011719 9.683594 L 17.851562 9.667969 C 17.636719 9.652344 17.421875 9.640625 17.207031 9.644531 C 16.773438 9.648438 16.34375 9.6875 15.917969 9.769531 C 15.496094 9.855469 15.078125 9.984375 14.679688 10.15625 C 14.285156 10.332031 13.90625 10.554688 13.558594 10.816406 C 13.210938 11.074219 12.894531 11.375 12.605469 11.699219 C 12.320312 12.027344 12.074219 12.394531 11.871094 12.777344 C 11.769531 12.96875 11.675781 13.164062 11.59375 13.367188 L 11.53125 13.515625 C 11.511719 13.566406 11.492188 13.617188 11.472656 13.667969 L 11.417969 13.820312 L 11.363281 13.976562 C 11.230469 14.386719 11.125 14.804688 11.039062 15.230469 L 11.023438 15.308594 L 11.011719 15.390625 L 10.980469 15.546875 L 10.957031 15.707031 L 10.941406 15.789062 L 10.929688 15.867188 L 10.910156 16.027344 L 10.886719 16.1875 L 10.878906 16.269531 L 10.871094 16.347656 L 10.851562 16.507812 C 10.765625 17.367188 10.738281 18.226562 10.757812 19.085938 C 10.773438 19.945312 10.832031 20.804688 10.972656 21.660156 C 10.980469 21.714844 10.988281 21.765625 11 21.820312 L 11.027344 21.980469 C 11.046875 22.085938 11.066406 22.191406 11.089844 22.296875 C 11.132812 22.511719 11.1875 22.722656 11.242188 22.929688 C 11.359375 23.347656 11.5 23.761719 11.683594 24.164062 C 11.863281 24.5625 12.082031 24.949219 12.347656 25.304688 L 12.398438 25.371094 C 12.414062 25.390625 12.429688 25.414062 12.449219 25.433594 C 12.484375 25.476562 12.519531 25.523438 12.554688 25.5625 C 12.625 25.648438 12.699219 25.726562 12.773438 25.808594 C 12.925781 25.96875 13.085938 26.121094 13.253906 26.265625 C 13.585938 26.554688 13.953125 26.808594 14.347656 27.011719 C 14.742188 27.21875 15.160156 27.375 15.585938 27.484375 C 16.015625 27.59375 16.457031 27.65625 16.894531 27.675781 C 17.332031 27.699219 17.777344 27.679688 18.21875 27.613281 C 18.273438 27.605469 18.328125 27.59375 18.382812 27.585938 L 18.464844 27.570312 C 18.492188 27.5625 18.519531 27.558594 18.546875 27.550781 C 18.652344 27.527344 18.761719 27.503906 18.871094 27.46875 C 19.085938 27.410156 19.296875 27.332031 19.5 27.25 C 19.601562 27.203125 19.707031 27.160156 19.804688 27.105469 L 19.878906 27.070312 C 19.902344 27.054688 19.929688 27.042969 19.953125 27.03125 L 20.097656 26.949219 L 20.136719 26.925781 C 20.148438 26.917969 20.160156 26.910156 20.171875 26.90625 L 20.242188 26.859375 L 20.3125 26.816406 L 20.347656 26.792969 C 20.359375 26.785156 20.371094 26.777344 20.382812 26.769531 C 20.472656 26.707031 20.566406 26.644531 20.652344 26.574219 L 20.71875 26.523438 C 20.742188 26.507812 20.765625 26.488281 20.785156 26.472656 L 20.914062 26.363281 C 20.957031 26.328125 20.996094 26.289062 21.039062 26.253906 C 21.078125 26.214844 21.121094 26.179688 21.160156 26.136719 L 21.277344 26.019531 L 21.394531 25.894531 L 21.503906 25.769531 C 21.523438 25.75 21.539062 25.726562 21.558594 25.707031 L 21.609375 25.640625 C 21.886719 25.292969 22.125 24.914062 22.324219 24.523438 C 22.527344 24.128906 22.695312 23.722656 22.835938 23.3125 C 22.949219 22.988281 23.046875 22.65625 23.132812 22.324219 L 25.148438 22.972656 C 25.019531 23.433594 24.871094 23.890625 24.695312 24.332031 C 24.492188 24.855469 24.246094 25.359375 23.960938 25.832031 L 23.851562 26.011719 C 23.816406 26.070312 23.777344 26.128906 23.738281 26.183594 L 23.679688 26.269531 C 23.660156 26.300781 23.640625 26.328125 23.621094 26.355469 L 23.5 26.523438 L 23.375 26.6875 L 23.242188 26.847656 L 23.210938 26.886719 L 23.175781 26.925781 L 23.109375 27.003906 L 23.003906 27.121094 L 22.96875 27.15625 C 22.871094 27.253906 22.777344 27.355469 22.675781 27.445312 C 22.625 27.492188 22.578125 27.542969 22.527344 27.585938 L 22.367188 27.71875 L 22.289062 27.785156 L 22.042969 27.972656 C 21.988281 28.011719 21.929688 28.050781 21.875 28.089844 L 21.789062 28.148438 C 21.761719 28.167969 21.730469 28.1875 21.703125 28.203125 L 21.527344 28.3125 C 21.5 28.332031 21.46875 28.347656 21.4375 28.367188 L 21.257812 28.46875 C 21.242188 28.476562 21.226562 28.484375 21.214844 28.492188 L 21.167969 28.515625 L 20.984375 28.609375 L 20.9375 28.632812 L 20.890625 28.652344 L 20.703125 28.738281 C 20.671875 28.75 20.640625 28.765625 20.605469 28.777344 L 20.414062 28.855469 L 20.367188 28.875 C 20.351562 28.878906 20.335938 28.886719 20.320312 28.890625 L 20.222656 28.925781 L 20.027344 28.992188 L 19.828125 29.050781 L 19.730469 29.082031 C 19.695312 29.089844 19.664062 29.097656 19.628906 29.105469 L 19.429688 29.15625 C 19.394531 29.164062 19.359375 29.171875 19.328125 29.179688 L 19.226562 29.199219 L 19.125 29.222656 C 19.089844 29.226562 19.054688 29.234375 19.023438 29.242188 L 18.816406 29.273438 L 18.714844 29.292969 L 18.609375 29.304688 C 18.0625 29.375 17.503906 29.398438 16.945312 29.382812 C 16.390625 29.367188 15.835938 29.304688 15.296875 29.191406 C 14.753906 29.074219 14.226562 28.910156 13.722656 28.6875 C 13.21875 28.464844 12.738281 28.191406 12.292969 27.867188 C 11.847656 27.542969 11.4375 27.171875 11.0625 26.765625 C 10.875 26.5625 10.699219 26.351562 10.535156 26.128906 C 10.371094 25.910156 10.21875 25.679688 10.078125 25.441406 C 9.796875 24.96875 9.5625 24.464844 9.371094 23.941406 C 9.175781 23.421875 9.027344 22.882812 8.910156 22.335938 C 8.792969 21.789062 8.707031 21.234375 8.652344 20.675781 L 8.640625 20.570312 C 8.636719 20.535156 8.636719 20.5 8.632812 20.464844 L 8.613281 20.257812 L 8.589844 19.941406 L 8.585938 19.835938 L 8.574219 19.625 L 8.566406 19.414062 C 8.5625 19.273438 8.558594 19.132812 8.554688 18.988281 C 8.546875 18.425781 8.558594 17.859375 8.59375 17.296875 C 8.636719 16.738281 8.691406 16.179688 8.78125 15.625 Z M 8.78125 15.625 " fill-opacity="1" fill-rule="nonzero"/></g><g clip-path="url(#94b0ba5c5c)"><g mask="url(#0ac4ebe5e5)"><g transform="matrix(1, 0, 0, 1, 0, 0)"><g clip-path="url(#cecd986922)"><path fill="#f7f7f7" d="M 34.136719 14.402344 C 33.460938 12.386719 32.410156 10.507812 31.042969 8.898438 C 29.671875 7.277344 27.988281 5.921875 26.09375 4.945312 C 24.199219 3.953125 22.097656 3.351562 19.929688 3.1875 C 17.765625 3.023438 15.558594 3.277344 13.480469 4.015625 C 13.480469 4.027344 13.480469 4.042969 13.453125 4.074219 C 13.390625 4.132812 13.273438 4.210938 13.121094 4.269531 C 12.972656 4.34375 12.804688 4.40625 12.640625 4.464844 C 11.722656 4.796875 10.835938 5.230469 9.980469 5.726562 C 8.445312 6.734375 7.121094 8.027344 6.039062 9.488281 C 6.25 9.1875 6.492188 8.914062 6.714844 8.628906 C 6.957031 8.359375 7.199219 8.089844 7.453125 7.832031 C 7.949219 7.304688 8.503906 6.839844 9.078125 6.417969 C 9.242188 6.285156 9.40625 6.179688 9.527344 6.117188 C 9.648438 6.058594 9.722656 6.042969 9.738281 6.089844 C 9.738281 6.132812 9.679688 6.210938 9.558594 6.328125 C 9.453125 6.449219 9.289062 6.585938 9.121094 6.71875 C 7.617188 7.90625 6.28125 9.488281 5.304688 11.199219 C 4.3125 12.914062 3.679688 14.761719 3.273438 16.445312 C 2.988281 18.640625 3.199219 20.882812 3.84375 22.941406 C 4.492188 25 5.589844 26.894531 6.988281 28.445312 C 8.386719 29.992188 10.097656 31.226562 11.933594 32.039062 C 13.769531 32.847656 15.738281 33.253906 17.644531 33.269531 C 17.796875 33.269531 17.976562 33.285156 18.050781 33.316406 C 18.15625 33.34375 18.128906 33.375 17.992188 33.375 C 15.992188 33.464844 13.871094 33.121094 11.84375 32.261719 C 10.835938 31.828125 9.84375 31.285156 8.925781 30.609375 C 8.007812 29.933594 7.136719 29.136719 6.371094 28.234375 C 5.605469 27.332031 4.925781 26.339844 4.386719 25.242188 C 3.84375 24.160156 3.410156 23 3.125 21.785156 C 2.851562 20.566406 2.71875 19.320312 2.734375 18.039062 L 2.734375 17.800781 L 2.746094 17.558594 L 2.777344 17.078125 C 2.808594 16.761719 2.839844 16.445312 2.882812 16.132812 C 2.988281 15.5 3.09375 14.867188 3.273438 14.253906 L 3.394531 13.800781 L 3.542969 13.351562 C 3.632812 13.050781 3.753906 12.765625 3.875 12.476562 C 3.109375 14.101562 2.613281 15.90625 2.445312 17.816406 C 2.492188 18.011719 2.507812 18.328125 2.507812 18.703125 C 2.539062 19.605469 2.640625 20.492188 2.808594 21.363281 C 2.808594 21.316406 2.824219 21.304688 2.839844 21.289062 C 2.898438 21.289062 3.003906 21.605469 3.078125 21.980469 C 3.542969 24.160156 4.476562 26.21875 5.785156 28.023438 C 5.816406 28.066406 5.84375 28.113281 5.875 28.144531 C 7.558594 30.324219 9.796875 32.066406 12.308594 33.121094 C 14.820312 34.203125 17.585938 34.59375 20.277344 34.292969 C 20.441406 34.277344 20.609375 34.246094 20.773438 34.230469 C 20.9375 34.203125 21.105469 34.1875 21.269531 34.15625 L 21.765625 34.050781 L 22.019531 34.007812 L 22.261719 33.945312 L 22.757812 33.828125 L 23.238281 33.675781 C 23.570312 33.585938 23.871094 33.449219 24.199219 33.34375 C 24.832031 33.089844 25.449219 32.835938 26.035156 32.503906 C 26.335938 32.351562 26.621094 32.171875 26.90625 32.007812 C 27.058594 31.917969 27.191406 31.828125 27.328125 31.738281 C 27.464844 31.644531 27.613281 31.554688 27.75 31.449219 C 29.945312 29.886719 31.703125 27.753906 32.84375 25.332031 C 32.890625 25.183594 32.980469 24.988281 33.054688 24.894531 C 33.132812 24.789062 33.160156 24.820312 33.117188 24.972656 C 33.144531 24.972656 33.191406 24.957031 33.175781 25 C 32.484375 26.878906 31.449219 28.609375 30.078125 30.128906 C 28.695312 31.632812 26.96875 32.910156 24.894531 33.78125 C 23.464844 34.382812 21.960938 34.773438 20.425781 34.953125 C 22.019531 34.863281 23.539062 34.578125 24.894531 34.203125 C 26.785156 33.433594 28.546875 32.308594 30.035156 30.925781 C 31.523438 29.542969 32.769531 27.933594 33.734375 26.203125 L 33.628906 26.324219 C 33.703125 26.175781 33.792969 26.023438 33.867188 25.917969 C 33.941406 25.8125 33.988281 25.738281 34.019531 25.753906 C 34.046875 25.753906 34.046875 25.8125 34.019531 25.933594 C 33.988281 26.039062 33.929688 26.1875 33.835938 26.355469 C 33.445312 27.195312 32.980469 28.023438 32.441406 28.804688 C 31.898438 29.585938 31.28125 30.308594 30.621094 31 C 29.945312 31.675781 29.222656 32.308594 28.441406 32.863281 C 27.660156 33.421875 26.816406 33.917969 25.945312 34.335938 C 22.441406 36.035156 18.308594 36.441406 14.460938 35.496094 C 12.535156 35.015625 10.6875 34.203125 9.03125 33.089844 C 7.378906 31.976562 5.90625 30.578125 4.703125 28.96875 C 3.5 27.363281 2.582031 25.527344 1.996094 23.601562 C 1.394531 21.679688 1.167969 19.632812 1.246094 17.605469 C 1.378906 14.386719 2.460938 11.230469 4.28125 8.597656 C 6.085938 5.953125 8.640625 3.847656 11.574219 2.539062 C 12.007812 2.332031 12.429688 2.226562 12.730469 2.148438 C 13.03125 2.089844 13.242188 2.089844 13.257812 2.164062 C 13.269531 2.300781 12.578125 2.644531 11.738281 3.035156 C 8.941406 4.300781 6.535156 6.34375 4.824219 8.855469 C 3.09375 11.367188 2.054688 14.328125 1.875 17.378906 C 1.800781 18.71875 1.84375 20.070312 2.085938 21.378906 C 2.3125 22.6875 2.703125 23.980469 3.214844 25.195312 C 2.433594 23.273438 2.054688 21.210938 2.054688 19.167969 C 2.011719 18.386719 2.042969 17.605469 2.117188 16.824219 C 2.191406 16.042969 2.34375 15.257812 2.523438 14.476562 C 2.734375 13.710938 2.972656 12.945312 3.289062 12.207031 C 3.605469 11.472656 3.964844 10.75 4.386719 10.058594 C 5.394531 8.375 6.671875 6.929688 8.128906 5.757812 C 9.589844 4.585938 11.226562 3.652344 12.984375 3.023438 C 14.730469 2.390625 16.578125 2.03125 18.472656 1.96875 C 19.421875 1.9375 20.367188 1.984375 21.316406 2.105469 C 22.261719 2.226562 23.222656 2.433594 24.15625 2.707031 C 25.988281 3.246094 27.613281 4.042969 29.070312 4.976562 C 29.792969 5.457031 30.46875 5.96875 31.117188 6.523438 C 31.75 7.082031 32.347656 7.683594 32.890625 8.3125 C 33.445312 8.945312 33.941406 9.621094 34.394531 10.328125 C 34.84375 11.035156 35.25 11.800781 35.613281 12.582031 C 35.957031 13.378906 36.257812 14.207031 36.484375 15.078125 C 36.710938 15.949219 36.875 16.851562 36.964844 17.800781 C 36.996094 18.132812 36.980469 18.507812 36.933594 18.628906 C 36.917969 18.6875 36.890625 18.6875 36.859375 18.628906 C 36.828125 18.566406 36.816406 18.445312 36.800781 18.28125 C 36.5 14.65625 35.101562 11.378906 32.949219 8.75 C 32.425781 8.089844 31.824219 7.472656 31.191406 6.902344 C 30.875 6.601562 30.546875 6.34375 30.214844 6.058594 C 30.050781 5.921875 29.867188 5.804688 29.703125 5.667969 C 29.539062 5.53125 29.34375 5.425781 29.175781 5.292969 C 28.457031 4.8125 27.703125 4.359375 26.90625 3.984375 C 26.109375 3.609375 25.269531 3.277344 24.410156 3.023438 C 22.5625 2.464844 20.667969 2.226562 18.789062 2.253906 C 16.910156 2.300781 15.058594 2.632812 13.300781 3.261719 C 11.542969 3.894531 9.890625 4.8125 8.414062 6 C 6.941406 7.1875 5.664062 8.628906 4.65625 10.28125 C 4.386719 10.734375 4.128906 11.183594 3.90625 11.652344 C 4.3125 10.898438 4.761719 10.179688 5.273438 9.515625 C 5.785156 8.855469 6.339844 8.238281 6.925781 7.667969 C 9.152344 5.351562 12.023438 3.742188 15.105469 3.050781 C 18.1875 2.359375 21.449219 2.570312 24.441406 3.683594 C 25.597656 4.121094 26.710938 4.660156 27.734375 5.320312 C 28.769531 5.984375 29.71875 6.765625 30.574219 7.621094 C 30.800781 7.832031 30.996094 8.074219 31.207031 8.296875 C 31.417969 8.523438 31.597656 8.765625 31.792969 9.003906 C 32.167969 9.488281 32.53125 9.996094 32.84375 10.523438 C 33.476562 11.574219 34.003906 12.703125 34.378906 13.90625 C 34.46875 14.207031 34.558594 14.507812 34.574219 14.75 C 34.605469 14.988281 34.605469 15.167969 34.558594 15.246094 C 34.53125 15.304688 34.453125 15.246094 34.378906 15.09375 C 34.320312 14.945312 34.230469 14.703125 34.136719 14.402344 Z M 12.128906 33.917969 C 11.0625 33.511719 10.039062 32.984375 9.078125 32.351562 C 10.925781 33.644531 13.046875 34.5625 15.257812 35.027344 C 17.464844 35.496094 19.78125 35.511719 22.007812 35.058594 C 20.367188 35.316406 18.667969 35.359375 16.984375 35.179688 C 15.316406 34.984375 13.664062 34.5625 12.128906 33.917969 Z M 12.128906 33.917969 " fill-opacity="1" fill-rule="nonzero"/><g clip-path="url(#c5cab4e068)"><path fill="#f7f7f7" d="M 17.210938 36.457031 C 15.855469 36.308594 14.519531 35.992188 13.226562 35.570312 C 11.933594 35.148438 10.699219 34.625 9.558594 34.050781 C 9.453125 33.992188 9.378906 33.976562 9.421875 34.023438 C 9.46875 34.082031 9.589844 34.15625 9.707031 34.21875 C 10.804688 34.757812 12.007812 35.269531 13.257812 35.660156 C 14.503906 36.066406 15.828125 36.367188 17.121094 36.515625 C 17.269531 36.53125 17.40625 36.53125 17.421875 36.503906 C 17.449219 36.503906 17.34375 36.472656 17.210938 36.457031 Z M 17.210938 36.457031 " fill-opacity="1" fill-rule="nonzero"/></g><path fill="#f7f7f7" d="M 7.964844 33.164062 C 6.207031 31.992188 4.613281 30.457031 3.347656 28.640625 C 2.101562 26.820312 1.152344 24.714844 0.65625 22.492188 C 0.160156 20.265625 0.0859375 17.921875 0.460938 15.621094 C 0.839844 13.320312 1.679688 11.078125 2.914062 9.09375 C 4.914062 5.847656 7.859375 3.367188 11.210938 1.878906 C 11.421875 1.789062 11.632812 1.683594 11.84375 1.609375 L 12.488281 1.367188 C 12.925781 1.21875 13.363281 1.066406 13.796875 0.960938 C 14.234375 0.828125 14.683594 0.738281 15.136719 0.644531 C 15.585938 0.570312 16.039062 0.480469 16.503906 0.4375 C 16.953125 0.375 17.421875 0.347656 17.886719 0.316406 C 18.113281 0.300781 18.351562 0.300781 18.578125 0.300781 C 18.804688 0.285156 19.042969 0.300781 19.269531 0.300781 C 19.496094 0.316406 19.734375 0.300781 19.960938 0.316406 C 20.1875 0.332031 20.425781 0.347656 20.652344 0.359375 C 20.878906 0.375 21.121094 0.40625 21.34375 0.4375 C 21.464844 0.449219 21.570312 0.464844 21.691406 0.480469 L 22.035156 0.542969 C 23.253906 0.738281 24.457031 1.050781 25.585938 1.457031 C 26.726562 1.863281 27.792969 2.359375 28.800781 2.917969 C 28.96875 3.007812 29.085938 3.050781 29.042969 2.992188 C 28.980469 2.917969 28.816406 2.796875 28.621094 2.691406 C 26.515625 1.519531 24.199219 0.722656 21.796875 0.359375 C 19.390625 0 16.925781 0.0898438 14.519531 0.632812 C 12.128906 1.171875 9.828125 2.195312 7.8125 3.636719 C 5.828125 5.035156 4.101562 6.871094 2.824219 8.992188 C 1.589844 11.003906 0.75 13.261719 0.386719 15.589844 C 0.0117188 17.921875 0.0859375 20.296875 0.597656 22.566406 C 1.109375 24.835938 2.070312 26.972656 3.378906 28.804688 C 4.671875 30.640625 6.3125 32.1875 8.113281 33.359375 C 8.203125 33.421875 8.28125 33.433594 8.25 33.390625 C 8.191406 33.332031 8.054688 33.226562 7.964844 33.164062 Z M 7.964844 33.164062 " fill-opacity="1" fill-rule="nonzero"/><path fill="#f7f7f7" d="M 14.59375 0.796875 C 13.316406 1.113281 12.070312 1.578125 10.882812 2.164062 C 9.707031 2.75 8.582031 3.457031 7.558594 4.285156 C 6.519531 5.097656 5.558594 6.027344 4.71875 7.035156 C 3.859375 8.058594 3.109375 9.171875 2.460938 10.359375 C 1.753906 11.636719 1.246094 13.003906 0.914062 14.417969 C 0.582031 15.832031 0.417969 17.304688 0.492188 18.824219 C 0.523438 19.828125 0.671875 20.792969 0.867188 21.738281 C 1.0625 22.671875 1.335938 23.574219 1.648438 24.445312 C 1.800781 24.882812 1.996094 25.316406 2.175781 25.738281 C 2.28125 25.949219 2.371094 26.160156 2.476562 26.371094 C 2.582031 26.578125 2.6875 26.789062 2.808594 27 C 3.257812 27.828125 3.753906 28.640625 4.339844 29.4375 C 4.417969 29.542969 4.507812 29.632812 4.550781 29.648438 C 4.566406 29.632812 4.523438 29.558594 4.445312 29.453125 C 3.214844 27.722656 2.25 25.875 1.589844 23.917969 C 0.945312 21.964844 0.613281 19.890625 0.65625 17.738281 C 0.6875 16.746094 0.808594 15.753906 1.003906 14.777344 C 1.199219 13.832031 1.484375 12.882812 1.847656 11.96875 C 2.566406 10.132812 3.605469 8.449219 4.851562 6.960938 C 7.394531 4 10.820312 1.863281 14.640625 0.871094 C 14.804688 0.828125 14.894531 0.796875 14.894531 0.765625 C 14.878906 0.75 14.746094 0.765625 14.59375 0.796875 Z M 14.59375 0.796875 " fill-opacity="1" fill-rule="nonzero"/><path fill="#f7f7f7" d="M 3.621094 17.167969 C 3.484375 18.417969 3.5 19.710938 3.695312 20.972656 C 3.890625 22.234375 4.25 23.484375 4.777344 24.640625 C 5.304688 25.796875 5.980469 26.851562 6.746094 27.769531 C 7.527344 28.683594 8.402344 29.453125 9.289062 30.066406 C 9.378906 30.128906 9.40625 30.128906 9.363281 30.054688 C 9.316406 29.992188 9.199219 29.886719 9.121094 29.828125 C 8.25 29.210938 7.410156 28.445312 6.6875 27.527344 C 5.964844 26.609375 5.320312 25.574219 4.835938 24.445312 C 4.355469 23.316406 4.011719 22.113281 3.832031 20.898438 C 3.664062 19.679688 3.632812 18.429688 3.753906 17.230469 C 3.769531 17.003906 3.785156 16.792969 3.738281 16.761719 C 3.710938 16.761719 3.648438 16.929688 3.621094 17.167969 Z M 3.621094 17.167969 " fill-opacity="1" fill-rule="nonzero"/><g clip-path="url(#d69e09d047)"><path fill="#f7f7f7" d="M 18.5625 36.097656 C 17.210938 36.082031 15.855469 35.902344 14.535156 35.570312 C 13.226562 35.238281 11.949219 34.742188 10.746094 34.128906 C 9.542969 33.511719 8.429688 32.742188 7.394531 31.886719 C 6.371094 31.03125 5.4375 30.054688 4.613281 29 C 3.125 26.910156 2.085938 24.535156 1.558594 22.039062 C 1.5 21.679688 1.394531 21.394531 1.347656 21.410156 C 1.289062 21.410156 1.304688 21.722656 1.363281 22.085938 C 1.605469 23.363281 1.996094 24.609375 2.507812 25.796875 C 2.476562 25.769531 2.445312 25.769531 2.445312 25.78125 C 0.582031 21.605469 0.417969 16.6875 2.011719 12.359375 C 2.101562 12.117188 2.144531 11.9375 2.117188 11.921875 C 2.085938 11.90625 1.980469 12.085938 1.890625 12.328125 C 1.050781 14.582031 0.6875 17.019531 0.808594 19.410156 C 0.929688 21.800781 1.546875 24.160156 2.597656 26.292969 C 2.65625 26.460938 2.746094 26.640625 2.851562 26.835938 C 3.320312 27.722656 3.859375 28.5625 4.476562 29.347656 C 5.078125 30.128906 5.753906 30.847656 6.476562 31.527344 C 7.917969 32.863281 9.589844 33.960938 11.421875 34.773438 C 12.730469 35.34375 14.082031 35.78125 15.453125 36.050781 C 16.835938 36.320312 18.21875 36.425781 19.617188 36.398438 C 21.015625 36.367188 22.398438 36.15625 23.734375 35.78125 C 25.089844 35.40625 26.394531 34.878906 27.613281 34.1875 C 29.554688 33.089844 31.207031 31.570312 32.605469 29.828125 C 33.191406 29.105469 33.746094 28.308594 34.214844 27.511719 C 34.453125 27.105469 34.648438 26.699219 34.84375 26.292969 C 35.027344 25.875 35.191406 25.46875 35.328125 25.0625 C 36.046875 22.804688 36.167969 20.671875 35.957031 18.6875 C 35.941406 18.566406 35.925781 18.550781 35.914062 18.640625 C 35.898438 18.71875 35.882812 18.882812 35.898438 18.972656 C 35.988281 19.964844 35.988281 21.015625 35.851562 22.085938 C 35.730469 23.136719 35.507812 24.203125 35.222656 25.195312 C 34.46875 27.074219 33.402344 28.820312 32.09375 30.339844 C 30.769531 31.855469 29.222656 33.148438 27.492188 34.1875 C 26.800781 34.546875 26.082031 34.863281 25.359375 35.105469 C 24.636719 35.359375 23.902344 35.539062 23.164062 35.707031 C 21.660156 35.976562 20.140625 36.125 18.5625 36.097656 Z M 18.5625 36.097656 " fill-opacity="1" fill-rule="nonzero"/></g></g></g></g></g><g fill="#f7f7f7" fill-opacity="1"><g transform="translate(15.642052, 21.42844)"><g><path d="M 1.0625 0.03125 C 0.9375 0.03125 0.816406 0.0234375 0.703125 0.015625 C 0.585938 0.015625 0.503906 0.0078125 0.453125 0 C 0.316406 -0.03125 0.25 -0.109375 0.25 -0.234375 C 0.25 -0.597656 0.25 -0.992188 0.25 -1.421875 C 0.257812 -1.847656 0.269531 -2.28125 0.28125 -2.71875 C 0.289062 -3.15625 0.300781 -3.578125 0.3125 -3.984375 C 0.320312 -4.390625 0.335938 -4.757812 0.359375 -5.09375 C 0.378906 -5.4375 0.394531 -5.71875 0.40625 -5.9375 C 0.425781 -6.0625 0.492188 -6.128906 0.609375 -6.140625 C 0.773438 -6.160156 0.976562 -6.175781 1.21875 -6.1875 C 1.46875 -6.195312 1.71875 -6.203125 1.96875 -6.203125 C 2.226562 -6.210938 2.457031 -6.21875 2.65625 -6.21875 C 3.53125 -6.21875 4.207031 -6.078125 4.6875 -5.796875 C 5.164062 -5.523438 5.40625 -5.128906 5.40625 -4.609375 C 5.40625 -4.148438 5.253906 -3.75 4.953125 -3.40625 C 4.648438 -3.0625 4.226562 -2.796875 3.6875 -2.609375 C 3.144531 -2.421875 2.515625 -2.332031 1.796875 -2.34375 C 1.648438 -2.332031 1.578125 -2.21875 1.578125 -2 C 1.578125 -1.769531 1.59375 -1.546875 1.625 -1.328125 C 1.664062 -1.109375 1.707031 -0.90625 1.75 -0.71875 C 1.800781 -0.539062 1.832031 -0.382812 1.84375 -0.25 C 1.851562 -0.1875 1.832031 -0.128906 1.78125 -0.078125 C 1.738281 -0.0351562 1.6875 -0.00390625 1.625 0.015625 C 1.539062 0.0234375 1.445312 0.03125 1.34375 0.03125 C 1.238281 0.03125 1.144531 0.03125 1.0625 0.03125 Z M 2.015625 -3.234375 C 2.492188 -3.234375 2.890625 -3.289062 3.203125 -3.40625 C 3.515625 -3.519531 3.742188 -3.671875 3.890625 -3.859375 C 4.046875 -4.046875 4.125 -4.242188 4.125 -4.453125 C 4.125 -4.691406 4.007812 -4.875 3.78125 -5 C 3.550781 -5.132812 3.175781 -5.203125 2.65625 -5.203125 C 2.519531 -5.203125 2.394531 -5.195312 2.28125 -5.1875 C 2.175781 -5.1875 2.066406 -5.179688 1.953125 -5.171875 C 1.847656 -5.160156 1.769531 -5.125 1.71875 -5.0625 C 1.664062 -5.007812 1.632812 -4.941406 1.625 -4.859375 C 1.601562 -4.691406 1.59375 -4.476562 1.59375 -4.21875 C 1.59375 -3.96875 1.601562 -3.734375 1.625 -3.515625 C 1.644531 -3.316406 1.773438 -3.222656 2.015625 -3.234375 Z M 2.015625 -3.234375 "/></g></g></g><g fill="#f7f7f7" fill-opacity="1"><g transform="translate(21.205727, 21.42844)"><g><path d="M 0.984375 0.03125 C 0.921875 0.03125 0.832031 0.0234375 0.71875 0.015625 C 0.601562 0.015625 0.5 0.0078125 0.40625 0 C 0.351562 -0.0078125 0.304688 -0.0351562 0.265625 -0.078125 C 0.222656 -0.128906 0.203125 -0.1875 0.203125 -0.25 C 0.222656 -0.757812 0.242188 -1.28125 0.265625 -1.8125 C 0.296875 -2.34375 0.332031 -2.859375 0.375 -3.359375 C 0.425781 -3.867188 0.472656 -4.34375 0.515625 -4.78125 C 0.566406 -5.21875 0.613281 -5.597656 0.65625 -5.921875 C 0.664062 -6.054688 0.738281 -6.128906 0.875 -6.140625 C 0.957031 -6.160156 1.054688 -6.171875 1.171875 -6.171875 C 1.285156 -6.179688 1.378906 -6.1875 1.453125 -6.1875 C 1.535156 -6.1875 1.632812 -6.179688 1.75 -6.171875 C 1.875 -6.171875 1.976562 -6.160156 2.0625 -6.140625 C 2.164062 -6.128906 2.253906 -6.109375 2.328125 -6.078125 C 2.398438 -6.054688 2.457031 -5.988281 2.5 -5.875 C 2.550781 -5.75 2.601562 -5.582031 2.65625 -5.375 C 2.71875 -5.175781 2.78125 -4.96875 2.84375 -4.75 C 2.914062 -4.539062 2.976562 -4.34375 3.03125 -4.15625 C 3.101562 -3.925781 3.175781 -3.710938 3.25 -3.515625 C 3.320312 -3.316406 3.394531 -3.15625 3.46875 -3.03125 C 3.539062 -2.914062 3.609375 -2.859375 3.671875 -2.859375 C 3.742188 -2.859375 3.816406 -2.921875 3.890625 -3.046875 C 3.960938 -3.171875 4.035156 -3.332031 4.109375 -3.53125 C 4.179688 -3.726562 4.253906 -3.941406 4.328125 -4.171875 C 4.378906 -4.347656 4.4375 -4.546875 4.5 -4.765625 C 4.5625 -4.984375 4.625 -5.191406 4.6875 -5.390625 C 4.75 -5.585938 4.800781 -5.753906 4.84375 -5.890625 C 4.882812 -5.992188 4.941406 -6.054688 5.015625 -6.078125 C 5.085938 -6.109375 5.179688 -6.128906 5.296875 -6.140625 C 5.378906 -6.160156 5.472656 -6.171875 5.578125 -6.171875 C 5.691406 -6.179688 5.785156 -6.1875 5.859375 -6.1875 C 5.929688 -6.1875 6.03125 -6.179688 6.15625 -6.171875 C 6.289062 -6.171875 6.394531 -6.160156 6.46875 -6.140625 C 6.601562 -6.117188 6.679688 -6.046875 6.703125 -5.921875 C 6.742188 -5.585938 6.785156 -5.203125 6.828125 -4.765625 C 6.878906 -4.328125 6.925781 -3.851562 6.96875 -3.34375 C 7.007812 -2.84375 7.046875 -2.328125 7.078125 -1.796875 C 7.109375 -1.273438 7.128906 -0.757812 7.140625 -0.25 C 7.140625 -0.1875 7.117188 -0.128906 7.078125 -0.078125 C 7.046875 -0.0351562 7 -0.0078125 6.9375 0 C 6.84375 0.0078125 6.742188 0.015625 6.640625 0.015625 C 6.535156 0.0234375 6.453125 0.03125 6.390625 0.03125 C 6.335938 0.03125 6.25 0.0234375 6.125 0.015625 C 6.007812 0.015625 5.914062 0.0078125 5.84375 0 C 5.78125 -0.0078125 5.722656 -0.0351562 5.671875 -0.078125 C 5.617188 -0.128906 5.597656 -0.1875 5.609375 -0.25 C 5.628906 -0.46875 5.644531 -0.710938 5.65625 -0.984375 C 5.664062 -1.265625 5.664062 -1.539062 5.65625 -1.8125 C 5.65625 -2.09375 5.648438 -2.332031 5.640625 -2.53125 C 5.628906 -2.925781 5.609375 -3.226562 5.578125 -3.4375 C 5.554688 -3.65625 5.503906 -3.765625 5.421875 -3.765625 C 5.359375 -3.765625 5.300781 -3.707031 5.25 -3.59375 C 5.207031 -3.488281 5.160156 -3.351562 5.109375 -3.1875 C 5.054688 -3.019531 5 -2.84375 4.9375 -2.65625 C 4.863281 -2.457031 4.773438 -2.238281 4.671875 -2 C 4.566406 -1.757812 4.46875 -1.53125 4.375 -1.3125 C 4.28125 -1.125 4.179688 -0.984375 4.078125 -0.890625 C 3.972656 -0.796875 3.84375 -0.75 3.6875 -0.75 C 3.519531 -0.75 3.382812 -0.796875 3.28125 -0.890625 C 3.1875 -0.984375 3.085938 -1.125 2.984375 -1.3125 C 2.890625 -1.53125 2.789062 -1.753906 2.6875 -1.984375 C 2.582031 -2.210938 2.492188 -2.429688 2.421875 -2.640625 C 2.367188 -2.835938 2.3125 -3.019531 2.25 -3.1875 C 2.195312 -3.363281 2.144531 -3.503906 2.09375 -3.609375 C 2.039062 -3.722656 1.984375 -3.78125 1.921875 -3.78125 C 1.847656 -3.78125 1.796875 -3.671875 1.765625 -3.453125 C 1.742188 -3.234375 1.722656 -2.925781 1.703125 -2.53125 C 1.691406 -2.332031 1.6875 -2.09375 1.6875 -1.8125 C 1.6875 -1.539062 1.691406 -1.265625 1.703125 -0.984375 C 1.710938 -0.710938 1.726562 -0.46875 1.75 -0.25 C 1.75 -0.1875 1.722656 -0.128906 1.671875 -0.078125 C 1.628906 -0.0351562 1.578125 -0.0078125 1.515625 0 C 1.429688 0.0078125 1.332031 0.015625 1.21875 0.015625 C 1.113281 0.0234375 1.035156 0.03125 0.984375 0.03125 Z M 0.984375 0.03125 "/></g></g></g><g fill="#f7f7f7" fill-opacity="1"><g transform="translate(28.550836, 21.42844)"><g><path d="M 1.0625 0.03125 C 0.9375 0.03125 0.816406 0.0234375 0.703125 0.015625 C 0.585938 0.015625 0.503906 0.0078125 0.453125 0 C 0.316406 -0.03125 0.25 -0.109375 0.25 -0.234375 C 0.25 -0.597656 0.25 -0.992188 0.25 -1.421875 C 0.257812 -1.847656 0.269531 -2.28125 0.28125 -2.71875 C 0.289062 -3.15625 0.300781 -3.578125 0.3125 -3.984375 C 0.320312 -4.390625 0.335938 -4.757812 0.359375 -5.09375 C 0.378906 -5.4375 0.394531 -5.71875 0.40625 -5.9375 C 0.425781 -6.0625 0.492188 -6.128906 0.609375 -6.140625 C 0.773438 -6.160156 0.976562 -6.175781 1.21875 -6.1875 C 1.46875 -6.195312 1.71875 -6.203125 1.96875 -6.203125 C 2.226562 -6.210938 2.457031 -6.21875 2.65625 -6.21875 C 3.53125 -6.21875 4.207031 -6.078125 4.6875 -5.796875 C 5.164062 -5.523438 5.40625 -5.128906 5.40625 -4.609375 C 5.40625 -4.148438 5.253906 -3.75 4.953125 -3.40625 C 4.648438 -3.0625 4.226562 -2.796875 3.6875 -2.609375 C 3.144531 -2.421875 2.515625 -2.332031 1.796875 -2.34375 C 1.648438 -2.332031 1.578125 -2.21875 1.578125 -2 C 1.578125 -1.769531 1.59375 -1.546875 1.625 -1.328125 C 1.664062 -1.109375 1.707031 -0.90625 1.75 -0.71875 C 1.800781 -0.539062 1.832031 -0.382812 1.84375 -0.25 C 1.851562 -0.1875 1.832031 -0.128906 1.78125 -0.078125 C 1.738281 -0.0351562 1.6875 -0.00390625 1.625 0.015625 C 1.539062 0.0234375 1.445312 0.03125 1.34375 0.03125 C 1.238281 0.03125 1.144531 0.03125 1.0625 0.03125 Z M 2.015625 -3.234375 C 2.492188 -3.234375 2.890625 -3.289062 3.203125 -3.40625 C 3.515625 -3.519531 3.742188 -3.671875 3.890625 -3.859375 C 4.046875 -4.046875 4.125 -4.242188 4.125 -4.453125 C 4.125 -4.691406 4.007812 -4.875 3.78125 -5 C 3.550781 -5.132812 3.175781 -5.203125 2.65625 -5.203125 C 2.519531 -5.203125 2.394531 -5.195312 2.28125 -5.1875 C 2.175781 -5.1875 2.066406 -5.179688 1.953125 -5.171875 C 1.847656 -5.160156 1.769531 -5.125 1.71875 -5.0625 C 1.664062 -5.007812 1.632812 -4.941406 1.625 -4.859375 C 1.601562 -4.691406 1.59375 -4.476562 1.59375 -4.21875 C 1.59375 -3.96875 1.601562 -3.734375 1.625 -3.515625 C 1.644531 -3.316406 1.773438 -3.222656 2.015625 -3.234375 Z M 2.015625 -3.234375 "/></g></g></g></svg>