<?xml version="1.0" encoding="UTF-8" standalone="no"?>
<svg width="77" height="36" viewBox="0 0 77 36" version="1.1" xmlns="http://www.w3.org/2000/svg" style="fill-rule:evenodd;clip-rule:evenodd;stroke-linejoin:round;stroke-miterlimit:2;">
    <g id="Layer_1" transform="matrix(0.348824,0,0,0.348824,-5.23237,0.0711152)">
        <g>
            <path d="M15.1,69.4L15.1,10.2L73.7,10.2L73.7,69.5C73.7,72 72.2,74.3 69.9,75.4L44.4,87.5L18.9,75.3C16.6,74.2 15.1,71.9 15.1,69.4Z" style="fill:white;fill-rule:nonzero;"/>
            <clipPath id="_clip1">
                <path d="M20,73C18.6,72.3 17.7,71 17.7,69.4L17.7,27.4L71.1,27.4L71.1,69.5C71.1,71 70.2,72.4 68.8,73.1L44.4,84.6L20,73Z"/>
            </clipPath>
            <g clip-path="url(#_clip1)">
                <path d="M33.6,26.4L33.6,44.8L15.1,44.8L15.1,63.8L33.6,63.8L33.6,87.5L55.2,87.5L55.2,63.8L73.7,63.8L73.7,44.8L55.2,44.8L55.2,26.4L33.6,26.4Z" style="fill:rgb(214,61,22);fill-rule:nonzero;"/>
            </g>
            <g>
                <path d="M63.7,81L44.4,90.1L25.1,81C23.2,80.1 21,80.1 19.1,81L15.2,82.8C15.1,82.9 15,83 15,83.1L15,93.8C15,94.9 16.2,95.6 17.2,95.1L19.1,94.2C21,93.3 23.2,93.3 25.1,94.2L42.7,102.6C43.7,103.1 45,103.1 46,102.6L63.6,94.2C65.5,93.3 67.7,93.3 69.6,94.2L71.5,95.1C72.5,95.6 73.7,94.9 73.7,93.8L73.7,83.2C73.7,83.1 73.6,82.9 73.5,82.9L69.6,81C67.8,80.1 65.6,80.1 63.7,81Z" style="fill:rgb(235,247,254);fill-rule:nonzero;"/>
                <path d="M66.6,80.9C67.5,80.9 68.5,81.1 69.3,81.5L73.1,83.3L73.1,93.9C73.1,94.5 72.6,94.8 72.2,94.8C72.1,94.8 71.9,94.8 71.8,94.7L69.9,93.8C68.9,93.3 67.8,93.1 66.7,93.1C65.6,93.1 64.5,93.4 63.5,93.8L45.9,102.2C45.5,102.4 45,102.5 44.5,102.5C44,102.5 43.5,102.4 43.1,102.2L25.5,93.8C24.5,93.3 23.4,93.1 22.3,93.1C21.2,93.1 20.1,93.4 19.1,93.8L17,94.7C16.9,94.8 16.7,94.8 16.6,94.8C16.1,94.8 15.7,94.5 15.7,93.9L15.7,83.3L19.5,81.5C20.3,81.1 21.3,80.9 22.2,80.9C23.1,80.9 24.1,81.1 24.9,81.5L44.2,90.6L44.4,90.7L44.6,90.6L63.9,81.5C64.8,81.1 65.7,80.9 66.6,80.9M66.6,80.3C65.6,80.3 64.6,80.5 63.6,81L44.3,90.1L25.1,81C24.2,80.6 23.1,80.3 22.1,80.3C21.1,80.3 20.1,80.5 19.1,81L15.2,82.8C15.1,82.9 15,83 15,83.1L15,93.8C15,94.6 15.7,95.3 16.5,95.3C16.7,95.3 16.9,95.3 17.2,95.1L19.1,94.2C20,93.7 21.1,93.5 22.1,93.5C23.1,93.5 24.1,93.7 25.1,94.2L42.7,102.6C43.2,102.8 43.8,103 44.4,103C45,103 45.5,102.9 46.1,102.6L63.7,94.2C64.6,93.8 65.7,93.5 66.7,93.5C67.7,93.5 68.7,93.7 69.7,94.2L71.6,95.1C71.8,95.2 72,95.3 72.3,95.3C73.1,95.3 73.8,94.7 73.8,93.8L73.8,83.2C73.8,83.1 73.7,82.9 73.6,82.9L69.6,81C68.7,80.6 67.7,80.3 66.6,80.3Z" style="fill-rule:nonzero;"/>
            </g>
            <path d="M66.6,82C67.4,82 68.1,82.2 68.8,82.5L72,84L72,93.5L70.5,92.8C69.3,92.2 68,91.9 66.7,91.9C65.4,91.9 64.1,92.2 62.9,92.7L45.3,101.1C45,101.2 44.7,101.3 44.4,101.3C44.1,101.3 43.8,101.2 43.5,101.1L25.9,92.7C24.7,92.1 23.4,91.9 22.1,91.9C20.8,91.9 19.5,92.2 18.3,92.8L16.8,93.5L16.8,84L19.9,82.5C20.6,82.2 21.3,82 22.1,82C22.9,82 23.6,82.2 24.3,82.5L44.3,92L44.4,92.1L44.5,92L64.4,82.5C65.1,82.2 65.9,82 66.6,82M66.6,81.8C65.8,81.8 65,82 64.3,82.3L44.4,91.8L24.5,82.3C23.8,82 23,81.8 22.2,81.8C21.4,81.8 20.6,82 19.9,82.3L16.7,83.8L16.7,93.8L18.6,92.9C19.7,92.4 21,92.1 22.3,92.1C23.6,92.1 24.8,92.4 25.9,92.9L43.5,101.3C43.8,101.4 44.2,101.5 44.5,101.5C44.8,101.5 45.2,101.4 45.5,101.3L63,93C64.1,92.5 65.4,92.2 66.6,92.2C67.9,92.2 69.1,92.5 70.3,93L72.2,93.9L72.2,83.9L69,82.3C68.3,82 67.4,81.8 66.6,81.8Z" style="fill-rule:nonzero;"/>
            <rect x="15.1" y="10.2" width="58.6" height="16.2"/>
            <g>
                <g>
                    <path id="Gold_Fill_18_" d="M30.3,65.1C30.4,65.1 30.4,65.1 30.3,65.1L30.4,65L30.5,64.9C30.6,64.8 30.6,64.8 30.6,64.7L30.7,64.6L30.9,64.7L30.7,64.6L30.8,64.5L31,64.6L30.8,64.5L30.8,64.4L31,64.5L30.8,64.4L30.9,63.9L30.9,63.8C30.9,63.7 31,63.5 31.1,63.4L31.2,63.3L31.3,63.2L31.4,63.1L31.6,63.1C31.8,63.1 32.1,63.1 32.3,63.3C32.6,63.4 32.9,63.6 33.5,63.6C33.8,63.6 34.1,63.6 34.4,63.5C34.3,63.4 34.3,63.1 34.5,63L34.8,62.9C35.1,62.8 35.4,62.7 35.7,62.6C35.9,62.4 36.2,62.3 36.5,62.3C36.6,62.3 36.7,62.3 36.8,62.2C36.7,62.1 36.7,62 36.7,61.9L36.7,61.8L36.8,61.7C36.9,61.6 37,61.6 37.2,61.5L37.3,61.5C37.2,61.5 37.2,61.4 37.2,61.3C37.2,61.1 37.4,60.9 38.2,60.5C38.4,60.4 38.8,60.2 38.9,60.1C38.7,59.9 38.5,59.6 38.4,59.4C38.3,59.2 38.5,59 38.6,59L38.7,59C39,58.9 39.5,58.8 39.7,58.5L39.7,58.4L39.8,58.4C39.9,58.4 40.1,58.3 40.5,58.2C41.5,57.9 43.1,57.4 43.8,57.2L44.1,57.1L44.1,57.6L43.9,57.6L44.1,57.6L44.1,58.2C44.1,58.4 44.2,58.6 44.3,58.7L44.4,58.8C44.6,59 44.9,59.1 45.3,59.2L46.4,59.2C46.8,59.2 47.3,59.1 47.7,59.2C48.1,59.2 48.4,59.5 48.5,59.9C48.6,60.3 48.3,60.9 47.6,61.1C47,61.2 46.5,61.2 46,61.2C45.1,61.1 44.8,60.8 44.5,60.4L44.8,60C44.7,59.9 44.7,59.9 44.5,59.8C44.4,59.7 44.2,59.7 44.1,59.6C43.9,59.5 43.7,59.5 43.5,59.3C43.4,59.3 43.4,59.2 43.3,59.1C43.2,59 43.2,59 43.2,58.9C43,58.7 42.9,58.5 42.7,58.5C42.5,58.5 42.3,58.6 42.2,58.7L42.1,59L41.9,58.9C41.5,58.7 40.9,58.9 40.6,59.3C40.5,59.4 40.4,59.5 40.4,59.6L41.1,59.6C41.1,59.6 41.2,59.6 41.2,59.7C41.2,59.7 41.3,59.7 41.3,59.8L41.6,60.1C41.6,60.2 41.7,60.3 41.6,60.4C41.6,60.5 41.4,60.8 41.2,60.8C41.1,60.8 41.1,60.8 41,60.7C40.9,60.6 40.7,60.6 40.6,60.6C40.2,60.6 39.8,61 39.7,61.3C39.7,61.4 39.6,61.5 39.6,61.5C40.1,61.3 40.6,61.3 41,61.7C41.4,61.9 41.4,62.3 41.4,62.5L41.4,62.7L41.2,62.8C40.6,63 40.2,63.2 40,64C40.6,63.7 41.2,63.7 41.7,63.7L41.8,63.7L41.9,63.8C42.2,64.1 42.6,64.2 42.9,64C43.2,63.8 43.4,63.5 43.7,63.3C44,63 44.1,62.8 44.3,62.8C44.4,62.8 44.4,62.7 44.5,62.7C44.6,62.7 44.7,62.7 44.8,62.9C44.9,63.1 44.9,63.4 44.8,63.5C44.7,63.8 44.5,64 44.3,64.1L44.6,64.1C45,64.1 45.2,64.1 45.4,64L45.5,64C45.6,64 45.6,63.9 45.7,63.9C45.8,63.9 45.9,63.8 45.9,63.8L46,63.8C46.1,63.8 46.1,63.9 46.2,63.9C46.3,64 46.3,64.1 46.2,64.2C46.2,64.3 46.1,64.4 46.1,64.4C46.6,64.4 46.8,64.3 47,64L47.2,63.7L47.4,63.9C47.5,64 47.6,64.1 47.6,64.2C47.7,64.3 47.7,64.3 47.8,64.4C47.9,64.1 48,63.7 48.4,63.5L48.8,63.3L48.8,63.7C48.8,63.8 48.9,64.2 49,64.4C49.1,64.2 49.1,64.1 49.2,64C49.2,64 49.4,63.7 49.6,63.7C49.8,63.7 49.9,63.9 50,64.1C50,64.2 50.1,64.3 50.2,64.4C50.4,64 50.7,63.6 50.8,63.4L50.9,63.3L51,63.3C51.1,63.3 51.2,63.3 51.3,63.4C51.6,63.5 52,63.6 52.3,63.6C52,63.2 51.9,62.9 51.9,62.3L51.9,62.2L51.9,62.1C52,61.8 52.2,61.6 52.5,61.5L52.6,61.4C52.7,61.3 52.8,61.2 52.9,61.1C53.2,60.8 53.2,60.7 53.2,60.4C53.1,60.2 52.8,60 52.6,59.8C52.4,59.7 52.3,59.6 52.2,59.5C51.6,58.8 52.1,57.9 52.1,57.9C52.1,57.8 52.2,57.8 52.3,57.7L52.5,57.6L52.7,57.7C53.3,58.2 53.8,58.5 54.4,58.9C54.8,59.2 55.4,59.4 56,59.4L57.2,59.4C58.3,59.4 59.5,59.7 59.5,60.7C59.5,61.3 58.9,62.1 58.2,62.1L58,62.1C57.8,62 57.7,61.7 57.5,61.5C57.4,61.2 57.3,61.1 57.1,61C57,60.9 56.7,61.1 56.5,61.3L56,61.4L55.9,61.3C55,60.9 54.4,61.2 53.9,62L54.3,62C54.8,62 55.3,62.2 55.6,62.5L55.7,62.6L55.7,62.7C55.7,62.9 55.6,62.9 55.5,63C55.4,63 55.3,63.1 55.1,63.5L55,63.6L54.9,63.6C54.5,63.7 53.9,64.4 53.8,65.1C54.3,64.8 55,64.6 55.7,64.6L55.8,64.6L55.9,64.7C56.1,64.9 56.1,65.2 56.1,65.4L56.1,65.5L56,65.6C55.5,65.8 55.1,65.9 54.7,66C55,66.2 55.5,66.4 56,66.4C56.4,66.4 56.8,66.3 57,66.1L57.1,66L57.2,66C57.7,66.1 58.1,65.9 58.2,65.6C58.3,65.4 58.3,65.1 58.2,64.8C58.1,64.7 58.1,64.6 58.2,64.4C58.3,64.3 58.4,64.2 58.5,64.2L58.7,64.2C58.9,64.2 59.1,64.3 59.3,64.5C59.5,64.8 59.6,65.2 59.6,65.6C59.8,65.6 60,65.4 60.2,65.1C60.2,65 60.3,65 60.3,64.9C60.4,64.7 60.4,64.6 60.4,64.5L60.4,64.3L60.6,64.3C61.2,64.3 61.6,64.2 62.3,63.8C62.2,63.8 62.1,63.7 62,63.6C61.9,63.5 61.7,63.4 61.9,63.1C62,63 62.2,62.9 62.5,62.7C62.6,62.6 62.7,62.6 62.8,62.5C62.7,62.4 62.6,62.3 62.6,62.2L62.6,62.1C62.7,61.9 62.9,61.8 63,61.7L63.1,61.6C62.9,61.6 62.8,61.5 62.8,61.3L62.8,61.2L62.9,61.1C62.9,61.1 63,61 63.2,60.9C63.4,60.8 63.7,60.5 63.9,60.3C63.6,60.3 63.4,60.2 63.2,60.1L63.1,60L63.2,59.9C63.3,59.7 63.5,59.5 63.6,59.4C63.5,59.4 63.4,59.3 63.3,59.3C63.2,59.1 63.3,58.9 63.4,58.6C63.5,58.4 63.6,58.3 63.6,58.1L63.5,58.1C63.3,58.2 63.2,58.1 63.1,58C63,57.8 63.1,57.7 63.2,57.5C63.2,57.4 63.3,57.3 63.4,57.2C63.2,57.3 63,57.4 62.8,57.5C62.3,57.7 61.8,57.9 61.2,57.9L60.9,57.9L60.8,57.9L60.7,57.8C60.7,57.8 60.6,57.7 60.6,57.6C60.5,57.4 60.3,57 59.7,57C59.6,57 59.6,57 59.6,57.1C59.1,57.4 58.4,57.8 57.8,57.8C57.6,57.8 57.5,57.8 57.4,57.7L57.3,57.7L57.2,57.7L57.1,57.6C56.7,57.3 56.6,56.8 56.5,56.3C56.5,56.2 56.5,56.2 56.4,56.1C56.3,55.9 56.2,55.3 56.2,55.2C56,54.9 55.7,54.7 55.4,54.5C54.9,54.1 54.3,53.7 54,53L54,52.9L53.9,52.5L56,52.8L56.3,52.8L57.7,52.7L58.6,52.5L59.4,52.1L59.9,51.7L60.3,51.1L60.3,51L60.3,50.9L60.3,50.8L60.3,50.7L60.4,50.4L60.4,50.3L60.4,50.2L60.4,50.1L60.4,50L60.5,49.3L60.5,48.9L60.5,48.8C60.5,48.7 60.5,48.5 60.7,48.5L60.9,48.4C61,48.4 61,48.3 61.1,48.3L61.3,48.2L61.4,48.1C61.4,48.1 61.5,48.1 61.5,48L61.6,47.9L61.7,47.8L61.8,47.7L61.8,47.6L62,47.7L61.8,47.6L61.8,47.5L62,47.6L61.8,47.5L61.8,47.4L62,47.5L61.8,47.4C61.8,47.3 61.9,47.3 61.9,47.2L61.9,47.1L61.9,47L61.9,46.9L61.9,46.8L61.9,46.7L61.9,46.6L61.9,46.5L61.9,46.4L61.9,46.1L61.9,46L61.9,45.9L61.9,45.8L61.9,45.7L61.9,45.6L61.8,45.7C61.5,45.9 61.2,46.2 60.9,46.2C60.4,46.2 60.1,45.8 59.8,44.8C59.7,45 59.5,45.2 59.2,45.2L59.1,45.2C58.7,45.1 58.4,44.6 58.2,44.2C58.1,44.1 58,43.9 57.9,43.8L57.9,44.3L57.8,44.3L57.7,44.3L57.6,44.3L57.5,44.3L57.4,44.3L57.3,44.3L56.8,44L56.7,44L56.8,43.8L56.7,44L56.3,43.8L56.4,43.6L56.3,43.8C56.3,44 56.3,44.2 56.1,44.4L56,44.5L55.9,44.5L55.5,44.5C55,44.5 54.6,44.4 54.3,44.2L54.3,44.3C54.3,44.4 54.3,44.5 54.2,44.6C54.1,44.7 53.9,44.7 53.8,44.7C53.9,44.9 54,45.2 53.9,45.5C53.9,45.6 53.9,45.6 53.8,45.7L53.6,45.5L53.8,45.7L53.7,45.8L53.4,46L53.2,46.1L53.1,46.1L53,46.1L52.9,46.1L52.8,46.1L52.5,46.1L52.4,46.1L52.3,46.1L52.2,46.1L52.1,46.1L52.3,46L52.3,45.9C52.3,45.8 52.2,45.7 52.3,45.6C52.4,45.4 52.7,45.3 53,45.3C52.9,45.1 52.7,44.8 52.9,44.3C53,44 53.4,43.7 53.9,43.5C54.6,43.1 55.3,42.7 55.4,42.2C55.3,42.2 55.1,42.3 55,42.3C54.7,42.4 54.4,42.5 54.1,42.5C53.9,42.5 53.7,42.4 53.5,42.3C53.4,42.2 53.3,42 53.3,41.9C52.5,42.5 51.6,42.7 50.9,42.6C50.5,42.5 50.2,42.2 49.9,41.8C49.5,41.4 49,41 48.4,40.8L48.4,41.6L48.2,41.6C47.8,41.6 47.3,41.6 47,41.7C47.5,41.8 47.9,41.9 48.1,42.6C48.3,43.2 47.7,43.6 47,44C46.5,44.3 45.9,44.6 45.5,45.1L45.3,45L45.1,44.9C44.9,44.8 44.7,44.6 44.5,44.4C44.4,44.3 44.3,44.2 44.2,44.1L43.7,44.1L44,43.7C44.3,43.4 44.4,43.1 44.4,42.8C44.4,42.5 44.3,42.2 44.2,42.1C44.2,42 44.1,42 44.1,41.9C44.1,42 43.8,42 43.5,42C43,42 42.7,41.9 42.6,41.6L42.6,41.3L42.4,41.3L42.3,41.3C41.6,41.3 40.7,41.3 40.1,41.7L39.9,42L39.8,41.8C39.3,41.2 38.6,40.7 37.9,40.6L37.8,40.6L37.7,40.5L37.6,40.4C37.4,40.8 37.1,41 36.6,41L36.6,41.1C36.6,41.2 36.7,41.3 36.7,41.4L36.7,41.7L36.4,41.6C36.4,41.6 36.1,41.5 35.8,41.5C35.6,41.5 35.4,41.5 35.2,41.6L34.9,41.6L34.9,41.8C34.8,42.3 34.3,42.6 34,42.8L33.9,42.8C34,42.9 34.1,43 34.2,43.2C34.3,43.4 34.1,43.7 33.5,44.2C33.6,44.2 33.7,44.3 33.8,44.3C34.1,44.5 34.1,44.7 34.1,44.7C34,44.9 33.8,45.1 33.7,45.3C33.5,45.5 33.4,45.6 33.3,45.8C33.4,45.8 33.5,45.8 33.6,45.9L33.9,46L33.7,46.2L33.6,46.3C33.3,46.7 33.1,47.2 32.9,47.8L33.1,47.8L33.1,48C33.1,48.4 33,48.7 32.8,49C32.7,49.1 32.7,49.1 32.6,49.1C32.2,49.1 31.8,48.4 31.6,48C31.4,47.7 31.1,46.9 31.1,46.1C31.1,44.2 31.4,43.8 31.6,43.6C31.7,43.5 31.7,43.5 31.7,43.4C31.7,43.2 31.6,43.1 31.4,43C31.2,42.9 31,42.8 30.9,42.6C30.6,42.1 30.1,41.9 29.5,41.9C29.4,41.9 29.2,41.9 29.1,42C29.3,42.1 29.5,42.2 29.7,42.6C29.8,42.9 29.7,43.1 29.6,43.1L29.6,43.4L29,43.4L28.8,43.4C28.6,43.4 28.5,43.4 28.3,43.3C28,43.1 27.5,42.9 27.1,42.9C26.9,42.9 26.7,43 26.5,43.1L26.4,43.3L26.5,43.1L26.7,43.2L27,43.2L27.2,43.3L27.3,43.3L27.4,43.4L27.4,44.6L27.3,44.7L27.2,44.7L27.1,44.7L27,44.7L26.7,45L26.8,44.8L26.7,45L26.6,45L26.5,44.9L26.6,44.7L26.4,44.9L26.5,44.7L26.3,44.9L26.5,44.7L26.3,44.9L26.3,45.2C26.3,45.6 26.4,46.1 26.8,46.2L27,46.2C27.3,46.2 27.4,46.5 27.4,46.6C27.4,46.7 27.4,46.7 27.5,46.7L28.2,46.7C28.3,46.7 28.4,46.7 28.5,46.8C28.5,46.8 28.5,46.9 28.6,46.9L28.6,47.4L28.5,47.5L28.4,47.5L28.3,47.5L28.2,47.5L28.1,47.5L28,47.5L27.9,47.5L27.8,47.5L27.8,47.3L27.7,47.5L27.7,47.3L27.7,47.5C27.7,47.6 27.7,47.7 27.8,47.8C28,48 28.2,48.1 28.5,48.1L28.6,48.1C28.8,48.1 28.9,48.2 29,48.4C29.1,48.6 29,48.9 28.9,49C28.7,49.1 28.5,49.2 28.3,49.3C27.9,49.5 27.6,49.7 27.4,49.9C27.8,49.9 27.9,50.1 27.9,50.3C27.9,50.6 27.8,50.8 27.6,51C27.8,51 27.9,51.1 28,51.2C28.2,51.5 27.9,51.8 27.7,52C27.6,52.1 27.5,52.2 27.4,52.4L27.7,52.4C28.2,52.4 28.5,52.6 28.6,53.1C28.6,53.3 28.5,53.6 28.4,53.8L28.7,53.8C29,53.8 29.1,53.9 29.1,54C29.3,54.2 29,54.4 28.8,54.6C28.7,54.7 28.6,54.8 28.5,54.9L29.3,54.9L29.3,55C29.4,55.2 29.4,55.4 29.3,55.5C29.2,55.7 28.9,55.9 28.6,56C28.8,56.1 29.1,56.1 29.4,56.1C29.9,56.1 30.5,56 30.8,55.8L31.1,55.7L31.2,56C31.4,56.7 32,56.9 32.5,57C32.7,57.1 32.9,57.1 32.9,57.3L32.9,57.4L32.8,57.5C32.4,57.8 32.1,58.5 32.2,58.8C32.3,59.5 32.1,60.1 31.7,60.6C31.3,61 30.8,61.2 30.2,61.2C29.4,61.2 28.5,61.1 28.2,60.2C28,59.7 27.7,59.6 27.3,59.9L27.2,60L27,60.1C26.9,60 26.8,60 26.6,60C26.2,60 25.7,60.3 25.4,60.6C25.9,60.7 26.4,60.9 26.6,61.3C26.7,61.5 26.7,61.8 26.3,62.2L26.2,62.3L26.1,62.3C25.5,62.3 25.1,62.6 25,63.2C25.3,63.1 25.6,63.1 25.9,63.1C26.8,63.1 27,63.5 27,63.7C27.1,64.2 26.5,64.8 25.7,65.1C26,65.3 26.3,65.4 26.6,65.4C26.9,65.4 27.2,65.3 27.6,65.1C27.7,65.1 27.8,65 27.9,65C28.1,64.9 28.3,64.9 28.4,65L28.5,65C28.8,65.1 28.9,65 29,64.6C29.1,64.4 29.1,64.3 29.3,64.2C29.4,64.1 29.5,64.1 29.6,64.1C29.7,64.1 29.8,64.1 29.9,64.2C30,64.3 30.1,64.4 30.1,64.4L30.1,65L30.2,65.2L30.2,65L30.3,65.2L30.3,65L30.4,65.2L30.3,65L30.4,65L30.5,65.2L30.4,65L30.3,65.1ZM46.8,45.4C47.2,44.9 47.8,44.6 48.4,44.6C48.6,44.6 48.8,44.6 49,44.7C49.4,44.9 49.7,45.3 50,45.6C50.4,46 50.7,46.3 51.2,46.6L51.3,46.7L51.3,46.8C51.3,46.9 51.3,47.1 50.1,47.5C49.8,47.6 48.9,47.8 48.4,47.8C47.1,47.8 46.5,47.3 46.5,46.3C46.4,46 46.5,45.7 46.8,45.4ZM44.6,48L45,47.5L45.1,47.8C45.5,48.6 46.3,49 47.4,49C47.7,49 48.1,49 48.5,48.9C49.6,48.7 50.9,48.4 52.1,48.1C53.8,47.6 55.5,47.2 56.8,47.2C57.7,47.2 59.6,47.6 59.6,48.9C59.6,49.7 59.3,50.2 58.7,50.7C57.7,51.4 55.1,51.4 55.1,51.4C54.5,51.4 52.9,51.4 52.2,50.8C51.8,50.5 51.7,50.5 51.7,50.5C51.3,50.4 51,50.3 50.6,50.3C49.7,50.3 48.7,50.6 47.7,50.8C46.8,51 45.9,51.3 45.1,51.3C45,51.3 44.9,51.3 44.9,51.2C44.7,50.8 44.5,48.7 44.6,48Z" style="fill:url(#_Radial2);"/>
                    <path id="Black_Outline_18_" d="M64.6,60C64.3,60 63.8,60.1 63.6,59.9C63.9,59.4 64.2,59.5 64.2,59.3C64.1,59.2 63.8,59.2 63.7,59.1C63.6,58.9 64.1,58.4 64,57.9C63.9,57.8 63.8,57.9 63.6,57.9C63.2,58 64.1,57.2 63.7,56.9C62.8,57.2 62.2,57.8 61.1,57.7C61,57.6 60.9,56.9 60,56.8C59.9,56.8 59.8,56.8 59.7,56.9C59.1,57.3 58.1,57.8 57.7,57.4C57.4,57.2 57.2,56.6 57.1,56.1C57,55.8 56.9,55.1 56.8,54.9C56.3,54.1 54.9,53.8 54.5,52.6C56.8,53.1 61.3,53.1 61.2,48.9C61.2,48.8 61.2,48.8 61.3,48.7C61.7,48.5 63,47.9 62.7,46.4L62.7,46.1C62.7,45.8 62.7,45.5 62.9,45.2C63,45.1 63.1,45 63.1,45C62.5,44.5 61.4,47.4 60.7,44.3C60.7,44.2 60.6,44 60.4,44.1C60.4,44.4 60.1,44.8 59.9,44.7C59.3,44.5 58.7,43 58.2,43.1C58.3,43.7 58.5,44.2 58.1,44.2L58,44.2C57.5,44.1 57.1,43.6 56.6,43.5C56.5,43.8 56.7,44 56.5,44.2C55.6,44.3 55.1,44 54.6,43.8C54.6,43.9 54.7,44 54.7,44.2L54.7,44.3C54.5,44.5 54.1,44.3 54,44.3C54,44.5 54.5,44.7 54.3,45.3C54,45.7 54,45.8 54,45.8C53.7,46.1 52.7,46.4 52.4,45.7C52.3,45.4 53.2,45.4 53.3,45.3C53.2,45.1 52.8,44.9 53,44.3C53.1,43.7 55.7,43.2 55.6,41.8C55.1,41.7 53.4,42.8 53.5,41.3C53.4,41.3 53.3,41.3 53.3,41.4C52.7,41.9 51.8,42.3 50.9,42.2C50.1,42 49.5,40.6 48.1,40.3L48.1,41.2C47.2,41.2 46.4,41.2 46.3,41.7C47.1,41.7 47.6,41.7 47.9,42.4C48.1,43.2 46.3,43.5 45.3,44.7C45,44.5 44.5,43.8 44.4,43.8C44.7,43.5 44.9,43.1 44.9,42.8C44.9,42.5 44.8,42.2 44.7,41.9C44.6,41.7 44.6,41.6 44.4,41.5C43.8,41.9 42.3,41.7 43,41.1C42.9,41.1 42.7,41 42.4,41.1C41.6,41.1 40.7,41.1 40.1,41.6C39.6,41 38.8,40.5 38,40.4C37.9,40.3 37.7,40.2 37.6,40.2C37.5,40.8 37.1,40.9 36.4,40.8C36.4,41 36.5,41.3 36.5,41.4C36.5,41.4 35.9,41.1 35.1,41.4C34.7,41.4 34.3,41.3 34.2,41.3C34.2,41.4 34.6,41.7 34.6,41.8C34.5,42.4 33.7,42.6 33.4,42.8C33.7,43 33.8,43 33.9,43.3C34,43.4 33.1,44.2 33,44.3C33.3,44.4 33.8,44.5 33.8,44.7C33.5,45.2 32.9,45.6 32.9,46.2C33,46.2 33.2,46.1 33.4,46.2C33,46.7 32.8,47.2 32.6,47.9C32.5,48 32.6,48.1 32.7,48.1L32.8,48.1C32.8,48.5 32.7,48.7 32.6,49C32.3,49.2 31.3,47.5 31.3,46.3C31.3,43.7 31.8,44.2 31.8,43.7C31.8,43.1 31.2,43.2 30.9,42.8C30.4,41.9 29,41.7 28.3,42.3C28.7,42.4 28.9,42.4 29.2,42.9C29.3,43.2 29.1,43.2 29.1,43.4C28.9,43.4 28.7,43.5 28.6,43.4C28.1,43 26.9,42.5 26.1,43.4C26.7,43.5 27.3,43.9 27.5,44.5L27.5,44.7C27.2,45.3 26.4,44.3 26.4,44.3C26,44.8 26,45.9 26.8,46.3L27,46.3C27.3,46.3 27.1,46.6 27.3,46.7L27.5,46.8L28.2,46.8C28.3,46.8 28.4,46.8 28.4,46.9C28.5,47 28.5,47.1 28.4,47.2C28.4,47.2 28.3,47.3 28.2,47.3C28,47.4 27.7,47.3 27.5,47.3C27.5,47.3 27.4,47.8 27.7,48C27.9,48.3 28.3,48.4 28.7,48.4C29,48.4 29,48.8 28.8,48.9C28,49.4 27.4,49.5 27,50.4C27.4,50.3 27.8,50.3 27.8,50.5C27.8,50.9 27.5,51 27.3,51.3C27.3,51.3 27.2,51.3 27.2,51.4C27.5,51.5 27.8,51.3 28,51.5C28.2,51.7 27.1,52.4 27.2,52.9C27.7,52.8 28.4,52.7 28.5,53.3C28.5,53.7 28.2,54 27.9,54.3C28.4,54.3 28.9,54.1 29.1,54.3C29.2,54.4 28.3,54.9 28.3,55.4C28.7,55.3 28.9,55.2 29.3,55.3C29.6,55.8 28.4,56.2 28.3,56.2C28.7,56.8 30.4,56.7 31.1,56.3C31.4,57.4 32.8,57.4 32.8,57.5C32.4,57.9 32,58.6 32.2,59C32.3,60.1 31.7,61.1 30.4,61.1C29.6,61.1 28.9,61 28.6,60.2C28.3,59.5 27.8,59.5 27.3,59.8C26.5,59.4 25.5,60.1 25.2,60.8C25.7,60.7 27.3,61.2 26.4,62C25.8,62 25.1,62.4 25,63.5C27.8,62.8 27.5,64.5 25.5,65C26.6,66 27.2,65.6 28.2,65.2C28.4,65.1 28.5,65.2 28.6,65.2C29.4,65.5 29.4,64.5 29.6,64.4C29.7,64.3 29.9,64.3 29.9,64.4L30,64.5C30.2,65 29.7,65.3 30,65.4C30.8,65.5 31.5,64.4 31.5,63.6C31.5,63.5 31.6,63.4 31.6,63.3C31.7,63.1 31.9,62.9 32.1,62.9C32.6,62.8 33.1,63.8 35.2,63.2C35.2,63.1 34.9,62.8 35.1,62.7C35.5,62.6 35.9,62.5 36.2,62.3C36.6,61.9 37.2,62.1 37.6,61.7C37.5,61.7 37.2,61.6 37.2,61.5C37.3,61.4 38.1,61.4 38,61.1C38,61.1 37.9,61.1 37.7,61C37.4,60.9 39.5,60 39.5,59.8C39.4,59.8 38.7,59.1 39,58.9C39.4,58.8 39.9,58.6 40.2,58.3C40.6,58.2 43.2,57.4 44.2,57.1C44.2,58 44.3,58.4 44.7,58.7C45,58.9 45.3,59.1 45.8,59.2C46.6,59.3 47.4,59.1 48.3,59.2C49.1,59.2 49.1,60.3 48.2,60.6C47.7,60.7 47.2,60.7 46.6,60.7C45.7,60.6 45.5,60.3 45.2,59.9C45.1,59.8 45.1,59.8 44.8,59.6C44.4,59.4 44.2,59.4 43.8,59.2C43.5,59 43.4,58.4 42.9,58.4C42.6,58.4 42.4,58.5 42.3,58.6C41.5,58.1 40.2,59 40.4,59.8C40.7,59.6 41.3,59.6 41.6,60.2L41.6,60.4C41.6,60.5 41.5,60.7 41.4,60.6C40.2,60 39.3,61.6 39.7,62C40.1,61.7 40.6,61.6 41.1,62C41.4,62.1 41.4,62.4 41.4,62.6C40.6,62.8 40.2,63.1 40,64.4C40,64.6 40.1,64.5 40.1,64.5C40.7,64 41.4,64 42,64C42.4,64.4 42.9,64.5 43.3,64.2C43.8,63.8 44.3,63.1 44.6,63C44.7,63 44.8,62.9 44.9,63C45,63.1 44.9,63.4 44.9,63.4C44.8,63.7 44.5,63.9 44.3,64.1C44.3,64.2 44.5,64.4 44.9,64.4C45.4,64.4 45.7,64.4 46.1,64.1C46.2,64 46.2,64.1 46.2,64.1C46.2,64.1 46.3,64.1 46.2,64.2C46.2,64.4 45.9,64.7 46,64.7C46.6,64.8 47.2,64.7 47.4,64.2C47.7,64.5 47.8,64.8 48.2,65C48.2,64.6 48.3,64.1 48.7,63.9C48.7,64.1 49.1,65.1 49.3,64.9C49.3,64.8 49.4,64.5 49.6,64.3C49.6,64.2 49.7,64.2 49.8,64.2C49.9,64.2 50.2,65.1 50.5,65C50.6,64.6 51,64 51.1,63.9C51.6,64 52.4,64.3 52.9,64.1C52.4,63.5 52.3,63.2 52.3,62.6C52.3,62.1 52.9,62 53.2,61.6C53.5,61.2 53.6,61.1 53.6,60.7C53.5,60.2 52.8,59.9 52.4,59.6C51.9,59.1 52.3,58.3 52.3,58.2C52.3,58.1 52.4,58.1 52.4,58.1C53,58.6 53.6,59 54.1,59.3C54.7,59.8 55.6,59.9 56.4,59.8C57.3,59.7 59.1,59.8 59.1,60.8C59.1,61.3 58.5,62 57.9,61.9C57.5,61.6 57.5,60.9 57,60.8C56.7,60.7 56.4,60.9 56.1,61.2C55.2,60.8 54.3,61 53.6,62.2C53.6,62.4 53.9,62.3 54,62.3C54.5,62.2 55.2,62.3 55.5,62.7C55.5,62.8 55.4,62.7 55,63.3C54.4,63.4 53.7,64.4 53.7,65.3C53.7,65.4 53.7,65.4 53.8,65.4C54.4,65 55.1,64.8 55.9,64.8C56,64.9 56,65.2 56,65.3C55.5,65.5 55,65.7 54.5,65.7C54.4,65.7 54.4,65.9 54.5,65.9C55.3,66.6 56.8,66.6 57.3,66.1C58.5,66.2 59,65.4 58.6,64.6C58.5,64.5 58.6,64.4 58.7,64.4C59.3,64.3 59.6,65.1 59.5,65.8C60.2,66 60.8,65.1 60.9,64.6C61.7,64.6 62.2,64.5 63.1,63.7C62.9,63.7 62.6,63.6 62.4,63.5C62.3,63.4 62.2,63.4 62.3,63.3C62.4,63.1 63.1,62.8 63.4,62.6C63.4,62.5 63.1,62.3 63.1,62.2C63.2,62 63.9,61.8 63.9,61.5C63.9,61.5 63.4,61.5 63.4,61.4C63.4,61.2 64.3,60.5 64.6,60ZM27.1,45.9C27.1,45.9 27,46 27.1,45.9C26.7,46 26.3,45.1 26.4,45C26.5,45 26.5,45.4 27.2,45.5C27.2,45.5 27.1,45.8 27.1,45.9ZM26.3,63C26.3,63 26.2,63 26.3,63C25.9,62.9 25.7,63 25.3,63.2C25.4,62.7 26.2,62.4 26.3,62.6L26.3,63ZM41,61.5C41,61.6 40.9,61.6 40.8,61.5L40.6,61.4C40.3,61.3 40,61.3 39.8,61.4C39.9,61 40.6,60.8 41,60.9C41.1,61.1 40.9,61 41,61.5ZM41.3,63.6C40.7,63.6 40.5,63.7 40.2,63.9C40.2,63.7 40.9,63.1 41.3,63.1C41.4,63.1 41.4,63.1 41.4,63.2C41.4,63.4 41.4,63.4 41.5,63.6L41.3,63.6ZM54.2,64.7C54.2,64.5 54.6,63.7 55,63.7C55,64 55.1,64.2 55.3,64.5C55.3,64.5 54.4,64.5 54.2,64.7ZM46,44.6C46.8,43.9 48.2,43.5 48.2,42.7C48.3,41.7 47.3,41.6 47.2,41.6C47.6,41.4 48.5,41.7 48.7,42.2C48.8,42.3 48.8,41.3 48.6,40.8C48.6,40.8 48.7,40.8 48.9,40.9C49.9,41.6 49.9,42.6 49.5,43.3C49.5,43.4 49.7,43.6 49.8,43.4C50.3,42.4 51.5,42.5 52.4,42.2L52.5,42.2C52.6,42.2 52.6,42.3 52.6,42.3C52.4,42.4 52.2,42.6 52.1,42.8L52.1,42.9C52.1,43 52.2,43 52.4,43C54.1,43 55,42.3 55.1,42.4C55.1,42.5 54.8,43.1 52.4,43.8C51.9,44.6 52.8,45.2 52.7,45.3C52.1,45.4 51.7,45 51.7,44.4C51.7,44.3 51.7,44.3 51.6,44.3C51.6,44.3 51.5,44.3 51.5,44.4C50.9,45.3 52.1,46.5 53,46.7L53,46.8L52.6,46.8C50,46.3 50.5,44.3 48.3,44.4C48.2,44.4 48.1,44.4 47.9,44.5C47.3,44.7 46.3,45.4 46.1,46.2C46,46.9 46.5,47.8 47.1,48.1C48.9,48.6 50.3,47.7 51.9,47.1C52.7,47.3 53.4,47.2 53.8,46.8C53.8,46.8 53.3,46.7 53.2,46.4L53.4,46.4C54.2,46.3 54.6,46 54.5,45C55.1,45 55.8,45.8 55.9,46C56.3,46 55.7,44.9 55.5,44.6C56.3,44.8 56.9,45 57.3,45.8C57.7,45.8 57,44.2 57.2,44.3C58.5,44.9 58.4,46.1 58.5,45.9C58.9,45.4 58.6,44.9 58.8,44.5C59.6,44.9 60.2,45.3 59.9,46.1L59.9,46.2C59.9,46.3 60,46.3 60,46.3C60.3,46.3 60.6,45.5 60.6,45.4C61,45.9 61.2,46.5 61,47C61,47.1 60.9,47.1 60.9,47.2L60.9,47.3C61,47.4 61.1,47.3 61.2,47.3C61.8,46.9 61.7,46.2 62.1,45.9C62.5,47.2 62.2,48 61,48.3C60.8,48.4 60.7,48.5 60.7,48.5C60.8,49.1 60.7,49.7 60.4,50.3C60,51.3 59.2,51.7 58.3,52C57,52.5 54.4,52.4 53.4,51.6C53.2,51.5 53.2,51.4 53,51.2C54.7,51.7 59.1,51.9 59.8,49.6C60.4,48 58.9,46.9 57.6,46.7C54.9,46.5 52.6,47.6 49.3,48.6C47.8,49 45,48.9 45,46.7C45,45.9 45.3,45.2 46,44.6ZM51.1,46.8C51.1,46.9 49.2,47.6 48.4,47.6C47,47.6 46.7,47 46.7,46.4C46.6,45.6 48,44.5 48.9,45C49.6,45.4 50.2,46.3 51.1,46.8ZM44.9,48.1L45,48C45.6,49.4 47.2,49.5 48.6,49.2C51.2,48.8 54.7,47.5 56.9,47.5C57.7,47.5 59.5,47.9 59.5,49C59.5,49.7 59.2,50.1 58.7,50.6C57.9,51.1 56,51.2 55.2,51.2C54.6,51.2 53.1,51.2 52.4,50.7C52.3,50.6 52,50.4 51.9,50.3C51.5,50.2 51.2,50.1 50.7,50.1C48.9,50.1 46.8,51.1 45.3,51.1C45,51.1 44.7,48.8 44.9,48.1ZM44.7,47.1C44.7,47.2 44.7,47.2 44.6,47.2C44.5,47.2 44.2,47.1 44.1,46.6C44,46.1 43.5,45.7 42.9,45.6C43,45.4 42.9,45.1 42.9,44.9C43.3,44.8 43.7,44.8 43.9,45C44.3,45.3 44,45.9 44.5,46.9C44.6,46.9 44.7,46.9 44.7,47.1ZM40,54.2C39.4,53.7 39.2,53.5 39,52.8C38.9,51.7 39.4,50.6 38.9,49.4C38.9,49.3 38.6,49 38.9,49C39.2,48.9 39.4,48.8 39.5,48.6C40,49.1 40,50.7 40,51.2C39.8,52.4 39.6,52.9 40,54.2ZM38.3,56.2C37.4,56.1 37.1,54.8 37.4,53.3C37.5,52.2 38.2,51.4 38,50.1C38.1,50.1 38.4,49.7 38.4,49.5C39.3,51.4 37.5,53.7 39,55.2C38.1,55.4 37.8,54.3 37.8,54.6C37.8,55.1 38,55.7 38.3,56.2ZM37,56.7C36.2,56 36.1,54.2 36.1,53.2C36.2,52.6 36.5,51.2 36.9,50.6C36.9,50.6 36.9,50.7 37,50.7C37.4,50.7 37.4,50.6 37.8,50.3C37.8,52.7 36.4,52.3 37,56.7ZM35.7,53.5C35.6,54.1 34.1,55.6 32.6,55.4C36.3,53.2 34.8,51.3 35.7,49.9C36,49.8 36.1,49.4 36.5,49.4C36.5,49.9 36.9,50.1 36.7,50.4C36.4,51.2 35.8,52.7 35.7,53.5ZM36,55.5C35.7,55.8 35.6,55.8 35.4,56.3C35.4,56.3 35,55.3 35.3,54.8C35.4,54.7 35.7,54.4 35.8,54.2C35.8,54.6 35.8,55.2 36,55.5ZM32.2,54.1C33.6,53.1 34,52.1 35,51C35,51.5 35,52.4 34.5,53.1C34,53.8 32.7,53.9 32.2,54.1ZM39.6,47.2C39.5,47.2 39.5,47.2 39.3,47.3C39.3,47.7 38.3,47.4 38.2,47.3L38.2,46.8C38.3,46.7 38.5,47.2 38.7,47.2C39,47.3 39,47.2 39.2,47C39.3,47 39.2,46.9 39.2,46.9C39,46.5 38.8,45.9 39.1,45.4L39.4,45.4C39.7,45.6 39.4,46.1 39.7,46.3C39.8,46.4 40,46.6 40.1,46.6C40.5,46.5 40.2,46.1 40.4,45.7C40.5,45.6 40.8,45.3 41.2,45.3C41.2,45.4 41.2,45.5 41.3,45.7C41.3,45.8 41.7,46 41.4,46.1C41.2,46.5 41,47 40.9,47.5C40.6,47.9 39.6,48.2 38.8,48.7C38.7,48.6 38.8,48.3 38.7,48C39,48 39.2,48 39.5,47.9C39.6,47.9 40,48 40.1,47.8C40,47.3 39.8,47.1 39.6,47.2ZM37.5,49.2C37.7,48.8 38,47.6 38.1,47.8C38.6,48.8 37.5,50.1 37.2,49.9C36.9,49.9 36.7,48.4 37.5,47.7C37.5,47.6 37.6,47.7 37.6,47.7C37.5,48.2 37.3,48.7 37.3,49.2L37.5,49.2ZM38.8,46.4C38.9,46.6 39.1,46.8 38.8,46.9C38.8,46.9 38.7,47 38.7,46.9L38.3,46.5C38,46.3 37.8,46.5 37.5,46.5L37.5,46.3C38.1,46.2 38.4,45.7 38.6,45.2L38.7,45.2C38.9,45.3 38.4,45.9 38.8,46.4ZM41.1,44.9C40.7,44.8 39.6,45.3 39,44.9C39.1,44.5 39.5,43.9 40,43.9C40.4,43.8 41,44.3 41.1,44.6C41.1,44.6 41.2,44.6 41.4,44.5C41.7,44.5 41.9,44.5 42.2,44.7C42.3,44.8 42.3,45 42.2,45.2C42.1,45.3 41.6,45.8 41.3,45.3C41.3,45.3 41.4,45.1 41.1,44.9ZM38.8,44.8C38.4,44.7 37.2,43.6 37.1,43.6C37.1,43.6 37,44 36.5,44.1L36.2,44.1C35.9,43.9 35.8,43.3 36.1,43C36.1,42.9 36.4,42.9 36.5,42.9C36.7,42.9 36.9,43 37,43.3C37.5,43.3 38.2,43.4 38.5,43.7C38.8,43.7 38.9,44 38.9,44.2C38.9,44.3 38.9,44.7 38.8,44.8ZM36.5,44.9C36.5,44.8 36.4,44.4 36.7,44.3C36.8,44.3 37,44.2 37.1,44.1C37.2,44.1 37.4,44.3 37.5,44.5C37.4,44.9 37,45.1 37.1,45.5C37.1,45.5 37.2,45.6 37.4,45.6C37.7,45.5 37.9,45.4 38,45L38.1,45C38.1,45 38.2,45 38.2,45.1C38.2,45.2 38.1,45.5 38.1,45.6C38,45.9 37.6,46 37.5,46.1C37.4,46.2 37.1,46.2 37.1,46.4C37.2,46.6 37.4,46.8 37.5,46.9C37.6,47 37.7,46.9 37.9,46.9C37.9,47 37.8,47.2 37.8,47.4C37.7,47.4 37.4,47.3 37.3,47.3C37.2,47.2 37,47.1 37,46.9C37,46.8 37,46.5 36.9,46.4L36.5,46.4C36.4,46.5 36.4,46.5 36.4,46.6C36.4,46.7 36.4,46.8 36.5,46.8C36.7,46.8 36.7,47.1 36.9,47.2C37,47.4 37.4,47.4 37.1,47.7C37,47.7 37,47.8 36.9,47.9C36.8,47.9 36.8,47.8 36.8,47.7C36.6,47.3 36.3,47 36,46.5C36.1,45.9 36.4,45.4 36.5,44.9ZM39.8,48.6C39.7,48.6 40.3,48.4 40.4,48.2C40.8,48.8 41,49.7 41,50.4C41.3,51.1 41,52 40.9,52.7C40,52 40.4,50.7 40.1,49.7C40.1,49.3 40,48.9 39.8,48.6ZM40.8,47.9C40.9,47.9 40.9,47.9 41.1,47.8C41.2,47.7 41.3,47.3 41.3,47.4C41.8,47.9 42.2,48.9 42.2,49.9C42.4,51 43,51.4 42.8,51.4C42.4,51.3 42,51 41.8,50.8C41.5,50.3 41.5,49.4 40.8,47.9ZM41.5,46.9C41.4,46.9 41.6,46.4 41.6,46.4C41.7,46.3 41.9,46.4 42,46.5C43.3,47.6 42.6,49.7 43.9,50.9C44,51.1 43.1,50.9 42.9,50.5C42.2,49.4 42.5,48.6 41.5,46.9ZM43.1,47.7C42.8,47.1 42.4,46.6 41.9,46.2C42.7,46.1 42.7,46 42.7,46C43.1,46 43.6,46.2 43.8,46.7C44.2,48.1 43.9,48.8 44.4,50.8C43.7,50.7 43.5,48.6 43.1,47.7ZM44.5,44.3C44.5,44.4 44.4,44.4 44.4,44.4C43.9,44.6 43.5,44.3 43,44.5C42.9,44.6 42.9,44.4 42.7,44.2C42.6,44.2 42.3,44.1 42.3,44.1C43.1,43.8 43.7,43.7 44.5,44.3ZM44.5,42.7C44.4,43 44.2,43.5 43.8,43.6L43.6,43.6C43,43.7 42.5,43.6 41.9,44.1C41.8,44.1 41.8,44 41.6,44.1C41.5,44.2 41.1,43.9 41.2,43.9C42.5,42.7 43.1,42.9 44.3,42.7C44.4,42.6 44.4,42.7 44.5,42.7ZM41.8,42.4C42,42.3 42.8,42.1 42.9,42.1C43.3,42.1 43.8,42.3 44.2,42.2L44.3,42.2C44.1,42.6 43.7,42.4 43,42.6C42,42.7 41.7,43 41.1,43.7C40.8,43.7 40.8,43.6 40.7,43.6C41,42.9 41.3,42.6 41.8,42.4ZM41.4,41.5L42,41.5C42,41.6 41.9,41.7 41.9,41.7C41.3,42.2 40.6,42.8 40.2,43.5L39.6,43.5C39.7,42.7 40.1,41.6 41.4,41.5ZM39.6,42.2C39.5,42.6 39.3,42.8 39.2,43.2C39.2,43.3 39.1,43.1 38.7,42.9C38.3,42.2 38.2,41.7 38.1,40.8C38.8,41.3 39.2,41.7 39.6,42.2ZM38.3,42.8L37.5,42.8C37.2,42.3 36.9,41.8 36.7,41.2C37.8,41.5 38.3,42.3 38.3,42.8ZM37,42.4C36.9,42.5 36.7,42.2 36.1,42.4C36,42.4 35.8,42.4 35.6,42.2C35.4,42 35.3,42.1 35.1,41.7C35.8,41.7 36.5,41.7 37,42.4ZM35.7,42.6C35.6,42.7 35.4,43 35.3,43.1C34.9,43.1 34.5,43 34.1,42.7C35.2,42 35.8,42.4 35.7,42.6ZM34,44C34.4,43.7 34.8,43.6 35.3,43.5L35.3,44C34.9,44 34.4,44.1 33.9,44.2C33.7,44.2 33.9,44 34,44ZM33.8,45.3C34.2,44.8 35,44.5 35.4,44.4C35.5,44.4 35.6,44.3 35.6,44.3C35.8,44.3 35.8,44.4 35.9,44.6C36,44.7 36,44.8 35.9,44.8C35.9,44.9 35.8,45 35.8,45C35.4,45.2 34.8,45.1 33.9,45.3C33.8,45.4 33.7,45.3 33.8,45.3ZM35.7,45.2C35.6,45.6 35.6,45.7 35.3,46.2C34.3,46.5 34.5,47.6 33.2,47.8L32.9,47.8C33.3,46.3 34.7,45.4 35.7,45.2ZM35.7,47.3C34.5,48 34.5,49.2 33.2,48.9C33.2,48.9 33.1,48.9 33.2,48.8C34.6,47.6 34.5,46.9 35.4,46.5C35.5,46.8 35.6,47.1 35.7,47.3ZM35.8,47.6C36.2,47.8 36.3,48.2 36.4,48.5L36.4,49C36.4,49.1 36.1,49.1 36,49.1C34.5,49.7 35,51.3 33,52.3C34.3,51.2 34.2,48.8 35.8,47.6ZM29.5,42.7C29.4,42.5 29.3,42.4 29,42.3C29.5,42.2 30,42.3 30.3,42.8C30.1,42.8 29.9,42.9 29.7,42.9C29.6,42.9 29.5,42.8 29.5,42.7ZM26.9,43.3C27.3,43.2 27.9,43.4 28.1,43.5C28.1,43.5 28,43.6 28,43.7C27.9,43.9 27.8,44.1 27.8,44C27.3,43.3 26.7,43.5 26.9,43.3ZM31.3,55.8C31.3,55.8 31.3,55.7 31.2,55.6C31.1,55.6 31.1,55.5 31,55.6C29.8,56.3 29.1,56.1 28.9,56.1C30.2,55.4 29.9,55.2 30.6,54.2C30.3,53.8 29.6,54.7 29.1,54.6C29.3,54.5 29.5,54.3 29.7,53.9C29.7,53.9 29.8,53.7 29.8,53.6C30.1,53 30.5,52.9 30.5,52.9C30.2,52.7 28.8,53.6 28.8,53.6C29.2,52.4 29.8,52.1 30,51.5L30,51.4C30,51.4 29.9,51.4 29.8,51.5C28.9,52.4 28.3,52.6 27.7,52.6C27.8,52 29.8,51.6 30,50.5L30,50.4C29.9,50.4 29.6,50.8 29.1,50.9C28.7,51 28.2,51 28.1,51C28.6,50.4 28.9,50.3 29.4,49.8C28.9,49.8 28.2,50.1 27.7,50.1C27.6,50.1 27.6,50 27.7,50L27.8,49.9C28.6,49.3 29.4,49.4 29.4,48.7C29.4,48.5 29.3,48.3 29.1,48.1C29.1,48.1 29,48 28.9,48C28.5,48 27.7,48 27.9,47.5C28.7,47.7 29.3,47.4 29,46.6C28.8,46.1 28.3,46.2 27.9,46.3L27.7,46.3C27.4,46 27.6,45.5 27.9,45.4C28,45.4 28,45.3 28.1,45.3C28.4,45.2 28.6,45.6 28.9,45.3L29,45.1C29,44.4 28.2,44.7 28.2,44.3C28.3,43.8 29,43.5 29.4,43.5C29.8,43.5 29.2,44.2 29.9,44.3C30,44.3 30.2,44.2 30.3,44.1C30.7,43.6 30,43.6 30.1,43.4C30.1,42.9 31.1,43 31.3,43.2C31.4,43.3 31.6,43.5 31.4,43.7C31.2,43.9 31,44.1 30.9,44.5C30.8,44.7 30.5,47.5 30.9,48.7L31,48.9C31.2,49.1 31.6,49.1 31.8,49.3C32.2,49.7 33.2,51.4 33.1,51.5C32.9,51.9 32.5,52.1 32.2,52.4C32.2,52.6 32.6,52.6 32.8,52.8C32.9,52.8 32,53.7 31.5,53.9L31.5,54C31.9,54.4 32.4,54.1 32.8,54.4C32.6,55 32.4,55 32,55.6C32.1,55.8 33.4,55.5 33.7,55.6C33.7,56.8 31.6,56.9 31.3,55.8ZM26.5,60.7C26.4,60.7 26,60.6 25.7,60.7C26,60.2 26.4,60.2 26.8,60.2C26.8,60.3 26.7,60.4 26.6,60.6L26.5,60.7ZM27,64.5C27.2,64.5 27.4,64.9 27.4,65L27.3,65.1C27.1,65.3 26.3,65.3 26,65.2C26.4,65.2 26.7,64.9 27,64.5C26.9,64.6 27,64.5 27,64.5ZM40.6,59.4C40.9,59 41.5,58.8 41.8,59.1C41.7,59.2 41.7,59.4 41.6,59.6C41.6,59.7 41.5,59.7 41.5,59.6C41.1,59.5 40.9,59.4 40.6,59.4ZM44.6,64.1C45,63.7 45.1,63.5 45.2,63.1C45.3,62.9 45.5,63.1 45.7,63.2C46.2,63.5 45,64.3 44.6,64.1ZM52.1,60.2C52.4,60.3 52.7,60.7 52.7,60.8C52.8,61 52.8,61.3 52.6,61.4C52.1,61.6 51.1,62.6 52.1,63.8C50.7,63.5 51.1,62.6 51.5,61.7C51.6,61.6 51.5,61.5 51.4,61.6C50.5,62.5 50.8,63.3 50.4,64.1C49.9,63.5 50.1,62.5 50.5,62C50.5,62 50.5,61.9 50.4,62C49.8,62.4 49.4,63.5 49.1,64.1C48.6,63.6 49,62.4 49.1,62.3C49.1,62.3 49.1,62.2 49,62.3C48.4,62.8 48.1,63.5 47.8,64.3C47.3,63.9 47.4,63.3 47.4,62.8C47,63 47.4,64.2 46.5,64.5L46.3,64.5C46.1,64.4 46.3,64.3 46.4,64.2C46.6,63.9 46.7,63.6 46.5,63.4C46.4,63.3 46.2,63.1 46.1,63.1C45.6,62.7 45.2,62.6 44.7,62.6C44.2,62.7 43.5,63.1 43.1,63.7C43,63.9 42.7,63.9 42.4,63.8C41.9,63.7 41.4,62.8 41.9,62.4C42.2,62.3 42.3,62.7 42.7,62.5C42.9,62.4 42.9,61.7 42.5,61.6L42.1,61.6C41.9,61.7 41.7,61.9 41.6,61.8C41.6,61.8 41.5,61.7 41.5,61.6C41.4,61.2 41.5,60.4 42,60.4C42.1,60.4 42.2,60.5 42.2,60.5C42.3,60.7 42.4,60.8 42.5,60.8C43.1,60.8 43,60.4 42.9,60.1C42.9,60 42.8,59.9 42.7,59.9C42.4,59.9 42.1,60 41.9,59.8C41.6,59.4 42.1,58.8 42.5,58.8C43,58.8 42.9,59.4 43.4,59.5C43.7,59.6 44.1,59.7 44.4,59.9C44.5,60 44.6,60 44.7,60.1C45,61.2 46.6,61.1 47.5,61C49.3,60.8 50.3,59.5 49.1,58.6C48.3,58.1 47.2,58.5 46.3,58.3C44.9,58.1 44.6,57.4 45,56.4C45.1,56.1 45.7,56 45.9,55.9C46.1,55.8 46.8,55.3 46.8,55.5C46.6,55.8 46.4,56.4 46.2,56.9C46.2,56.9 46.1,57 46.2,57.1C46.3,57.2 46.4,57.2 46.4,57.2C47.2,56.5 47.2,56.2 48.2,55.6C48.6,56.5 49.6,56.5 49.9,55.6C50.5,56.2 51.4,57 51.3,57.2C51.2,57.7 50.9,58.4 50.9,59.1C51.1,59.8 51.7,60 52.1,60.2ZM54.2,61.9C54.3,61.6 55.2,61 55.8,61.4C55.7,61.5 55.5,62 55.5,62C54.9,61.8 54.7,61.8 54.2,61.9ZM55.1,65.9C55.5,65.9 55.9,65.9 56.1,65.7C56.2,65.8 56.4,65.9 56.5,66.1C56.2,66.3 55.2,66.3 55.1,65.9ZM60.2,64.5C60.2,64.7 60.2,65.1 59.8,65.3C59.8,64.7 59.8,64.6 59.3,64.2C59.2,64.1 59.8,64.2 60.1,64.4C60.2,64.4 60.2,64.4 60.2,64.5ZM62.9,61.1C62.7,61.2 62.4,61.3 62,61.3C61.5,61.3 61,61.2 60.8,61.3C60.9,61.8 62.2,61.7 63,61.7C62.4,62.3 61.6,62.3 60.7,62.2C60.7,62.2 60.7,62.3 60.9,62.4C61.4,62.6 62,62.7 62.4,62.8C62,62.9 61.6,63.2 60.3,62.9C60.4,63.3 61.5,63.6 62,63.8C61.6,64 61.1,64.2 60.8,64.2C60.2,64.2 58.3,63.4 57.7,64.6L57.7,64.8C57.7,64.9 57.8,64.9 57.8,65C57.9,65.1 57.8,65.3 57.8,65.4C57.6,65.8 56.9,65.8 56.6,65.5C56.5,65.5 56.5,65.4 56.4,65.2C56.3,65 56.3,64.8 56.4,64.6C56.4,64.5 56.6,64.6 56.6,64.6C57.5,64.7 57.1,63.7 56.3,63.9C56.1,64 55.9,64.2 55.7,64.3C55.7,64.3 55.6,64.3 55.5,64.2C55.2,63.9 55.3,63.1 55.6,63C55.7,63 55.8,63.1 55.8,63.1C56.1,63.4 56.8,63.1 56.6,62.6C56.6,62.5 56.5,62.4 56.5,62.4C56.3,62.2 55.7,62.3 55.9,61.8C56,61.5 56.3,61 56.7,61C57,61 57.1,61.4 57.2,61.6C57.3,61.7 57.6,62.2 58,62.2C59,62.2 59.8,60.7 59.4,59.7C58.9,58.3 57.2,58.8 55.9,58.6C52.6,58.1 51.7,56.2 49.7,53.7L49.5,53.6C49.3,53.5 49.2,53.5 49,53.7C47.5,54.4 46.3,55.1 44.6,55.8C44.3,55.9 44.1,56 43.7,56.2C44,55.8 44.5,55.2 44.7,54.8C43.7,55.3 42.9,56 41.5,56.7C41.4,56.7 41.2,56.7 41.2,56.6C41.3,56.2 41.6,56.1 41.8,55.4C41.7,55.3 41.6,55.4 41.4,55.5C40,56.5 39.2,57.4 37.9,57.1C37.9,57.3 38.4,57.8 39.2,58.1C38.8,58.5 37.5,58.3 36.9,58C36.8,58.6 37.9,59 38.2,59.1C37.6,59.6 36.3,59.1 35.6,58.9C35.5,58.9 35.6,59 35.6,59C36,59.7 37.5,59.9 38.2,59.9C37.2,60.4 36.1,60.7 35,60C34.7,60.4 36,61.1 36.3,61.2C36.3,61.4 34.9,61.3 34,60.6C33.9,61 35,61.7 35.2,61.8C34.7,62.3 33.6,61.8 33.3,61.7C33.2,61.7 33.1,61.6 33.1,61.6L33.1,61.7C33.2,62.2 33.9,62.5 34.4,62.7C33.4,63.2 32.6,62.6 32.2,62.2C32,62.2 31,63.1 31,63.2C30.9,63.4 31,63.7 30.9,64.1C30.8,64.3 30.6,64.8 30.4,64.9L30.3,64.9C30.2,64.8 30.3,64.2 30.1,64.1C28.9,63.6 29.1,64.7 28.6,65.1C28.1,65.3 27.3,64.5 27.3,64.2C27.3,64.1 27.4,63.8 27.7,64L27.8,64.1L28,64.1C28.2,64 28.2,63.9 28.2,63.7C28.2,63.3 28.1,63.1 27.6,63.2C27.5,63.3 27.5,63.4 27.3,63.5L27.1,63.5C26.7,63.1 26.7,62.3 27,62.1C27.4,62 27.5,62.5 27.9,62.3C28.2,62.2 28.2,61.4 27.9,61.3C27.7,61.2 27.3,61.6 27.1,61.4L27.1,61.2C27.3,60.7 27.6,60.2 27.8,60.2C28.1,60.2 28.2,60.8 28.6,61.2C28.7,61.3 29.1,61.5 29.2,61.5C30,61.9 31,61.8 31.6,61.5C33.9,60.5 32.9,58.9 33.7,58.5C35.4,57.8 34.6,57 35.3,56.6C35.4,56.7 35.4,57.3 35.8,57.5C35.9,56.7 36.1,56.3 36.8,56.5C37,56.9 37.3,57.2 37.7,57.5C37.8,57.5 37.8,56.6 37.8,56.3C38.4,56.8 39.5,56.8 39.3,56.5C39.2,56.4 38.7,55.8 38.7,55.5C39.3,55.9 40.4,55.6 40.2,55.4C40.1,55.3 39.9,55.2 39.9,55C40,54.7 40.5,54.7 40.8,54.7C40.8,54.2 40.3,53.6 40.8,52.9C41.2,53.2 41.3,53.4 41.8,53.4C41.8,53 41.7,52.5 41.9,52.2C43.1,52.2 44,52.2 44.7,52.1C46.4,51.7 47.7,51.1 49.5,50.7C50,50.6 50.4,50.4 50.9,50.3C51.6,50.3 52.4,50.9 52.8,51.5C52.9,51.7 53.2,52.3 53.3,52.4C53.8,53 54.3,53.5 54.9,53.9C55.4,54.3 55.9,54.8 56.2,55.4C56.5,55.8 56.6,56.3 56.8,56.8C56.9,57.1 57.2,57.5 57.5,57.6C58.8,58.3 60,56.6 60.6,57.2C60.6,57.3 60.7,57.3 60.7,57.4C60.7,57.4 60.8,57.5 60.8,57.6C60.9,57.7 61,57.7 61,57.7C61.9,57.7 62.5,57.6 63.3,57.2C63.4,57.2 62.3,58.6 61,58.7C61.3,58.9 63.1,58.6 63.5,58.3C63.2,59 62.2,59.5 61.2,59.4L61.1,59.4C61.1,59.4 61.1,59.5 61.4,59.6C61.9,59.7 62.8,59.8 63.2,59.8C63.2,60.1 61.3,60.1 61.3,60.4C62.8,60.2 63,60.7 63.6,60.4C63.5,60.7 63.2,60.9 62.9,61.1Z"/>
                </g>
                <g id="Blue_18_">
                    <path d="M45.8,63.3C45.6,63.2 45.4,63 45.3,63.2C45.2,63.6 45,63.8 44.7,64.2C45,64.3 46.2,63.5 45.8,63.3Z" style="fill:rgb(0,159,227);fill-rule:nonzero;"/>
                    <path d="M29.5,42.7C29.5,42.8 29.6,42.9 29.7,42.9C29.9,43 30.1,42.8 30.3,42.8C30,42.3 29.5,42.2 29,42.3C29.2,42.4 29.4,42.5 29.5,42.7Z" style="fill:rgb(0,159,227);fill-rule:nonzero;"/>
                    <path d="M55.7,61.4C55.2,61 54.3,61.6 54.1,61.9C54.6,61.8 54.9,61.8 55.4,62C55.4,62 55.6,61.5 55.7,61.4Z" style="fill:rgb(0,159,227);fill-rule:nonzero;"/>
                    <path d="M27.7,44.1C27.7,44.2 27.8,44 27.9,43.8C28,43.7 28.1,43.6 28,43.6C27.9,43.5 27.2,43.2 26.8,43.4C26.7,43.5 27.3,43.3 27.7,44.1Z" style="fill:rgb(0,159,227);fill-rule:nonzero;"/>
                    <path d="M37.5,47.7C36.7,48.4 37,49.9 37.2,49.9C37.5,50 38.6,48.8 38.1,47.8C38,47.6 37.7,48.8 37.5,49.2L37.4,49.2C37.4,48.7 37.5,48.2 37.7,47.7C37.6,47.7 37.5,47.6 37.5,47.7Z" style="fill:rgb(0,159,227);fill-rule:nonzero;"/>
                    <path d="M41.2,63.1C40.8,63 40.1,63.6 40.1,63.9C40.5,63.8 40.6,63.6 41.2,63.6L41.3,63.6C41.3,63.4 41.3,63.4 41.2,63.1C41.3,63.2 41.3,63.1 41.2,63.1Z" style="fill:rgb(0,159,227);fill-rule:nonzero;"/>
                    <path d="M26.8,60.2C26.4,60.2 25.9,60.2 25.7,60.7C26.1,60.6 26.4,60.7 26.5,60.7C26.6,60.7 26.6,60.6 26.6,60.6C26.7,60.4 26.8,60.3 26.8,60.2Z" style="fill:rgb(0,159,227);fill-rule:nonzero;"/>
                    <path d="M27,64.5C27,64.5 26.9,64.6 27,64.5C26.7,64.9 26.4,65.1 26.1,65.2C26.3,65.3 27.2,65.3 27.4,65.1L27.5,65C27.4,64.9 27.2,64.6 27,64.5Z" style="fill:rgb(0,159,227);fill-rule:nonzero;"/>
                    <path d="M41.5,59.6C41.6,59.5 41.6,59.3 41.7,59.1C41.4,58.7 40.8,59 40.5,59.4C40.8,59.4 41,59.5 41.3,59.6C41.5,59.7 41.5,59.7 41.5,59.6Z" style="fill:rgb(0,159,227);fill-rule:nonzero;"/>
                    <path d="M25.3,63.2C25.8,63 25.9,62.9 26.2,63L26.3,63L26.3,62.6C26.2,62.4 25.4,62.7 25.3,63.2Z" style="fill:rgb(0,159,227);fill-rule:nonzero;"/>
                    <path d="M41,61C40.6,60.9 40,61.1 39.8,61.5C40,61.4 40.3,61.4 40.6,61.5L40.8,61.6C40.9,61.6 41,61.7 41,61.6C40.9,61 41.1,61.1 41,61Z" style="fill:rgb(0,159,227);fill-rule:nonzero;"/>
                    <path d="M26.4,44.9C26.3,45 26.6,46 27,45.9L27,45.8C27,45.7 27.1,45.5 27.1,45.4C26.6,45.3 26.6,44.9 26.4,44.9Z" style="fill:rgb(0,159,227);fill-rule:nonzero;"/>
                    <path d="M55.1,65.9C55.2,66.3 56.3,66.3 56.5,66C56.4,65.9 56.2,65.8 56.1,65.6C55.8,65.9 55.4,65.9 55.1,65.9Z" style="fill:rgb(0,159,227);fill-rule:nonzero;"/>
                    <path d="M54.9,63.6C54.5,63.6 54.1,64.4 54.1,64.6C54.4,64.5 55.3,64.5 55.1,64.4C55.1,64.1 54.9,63.9 54.9,63.6Z" style="fill:rgb(0,159,227);fill-rule:nonzero;"/>
                    <path d="M60.1,64.3C59.8,64.1 59.2,64 59.3,64.1C59.8,64.5 59.8,64.6 59.8,65.2C60.3,65 60.2,64.6 60.2,64.4L60.1,64.3Z" style="fill:rgb(0,159,227);fill-rule:nonzero;"/>
                </g>
            </g>
            <path d="M53.3,14.3C51,14.4 49.9,12.9 47.9,12.9C47.1,12.9 45.9,13.1 44.4,14.3C42.9,13.1 41.7,12.9 40.9,12.9C38.9,12.9 37.8,14.4 35.5,14.3C35.2,14.3 34.9,14.2 34.6,14.2L34.6,22C34.9,22.1 35.2,22.1 35.5,22.1C37.8,22.2 38.9,20.7 40.9,20.7C41.7,20.7 42.9,20.9 44.4,22.1C45.9,20.9 47.1,20.7 47.9,20.7C49.9,20.7 51,22.2 53.3,22.1C53.6,22.1 53.9,22 54.2,22L54.2,14.2C53.9,14.2 53.6,14.3 53.3,14.3Z" style="fill:rgb(235,247,254);fill-rule:nonzero;"/>
            <g>
                <g transform="matrix(-1,-1.22465e-16,1.22465e-16,-1,78.2753,46.4256)">
                    <rect x="33" y="22.8" width="12.3" height="0.9" style="fill:rgb(184,164,12);"/>
                </g>
                <g transform="matrix(6.12323e-17,-1,1,6.12323e-17,14.5712,52.3264)">
                    <rect x="28.7" y="18.4" width="9.6" height="0.9" style="fill:rgb(184,164,12);"/>
                </g>
            </g>
            <g>
                <rect x="43.5" y="22.8" width="12.3" height="0.9" style="fill:rgb(184,164,12);"/>
                <g transform="matrix(6.12323e-17,-1,1,6.12323e-17,36.4852,74.2403)">
                    <rect x="50.6" y="18.4" width="9.6" height="0.9" style="fill:rgb(184,164,12);"/>
                </g>
            </g>
            <g>
                <path d="M31.5,20.6L33,19.8L33,21.5L31.5,20.6Z" style="fill:rgb(184,164,12);fill-rule:nonzero;"/>
                <path d="M31.5,17.1L33,16.2L33,18L31.5,17.1Z" style="fill:rgb(184,164,12);fill-rule:nonzero;"/>
            </g>
            <g>
                <path d="M57.3,20.6L55.8,19.8L55.8,21.5L57.3,20.6Z" style="fill:rgb(184,164,12);fill-rule:nonzero;"/>
                <path d="M57.3,17.1L55.8,16.2L55.8,18L57.3,17.1Z" style="fill:rgb(184,164,12);fill-rule:nonzero;"/>
            </g>
            <path d="M54.2,13.3L54,13.3C53.8,13.4 53.5,13.4 53.3,13.4C52.3,13.5 51.5,13.1 50.7,12.8C49.9,12.4 49.1,12.1 48,12L47.9,12C46.8,12 45.6,12.4 44.5,13.2C43.4,12.4 42.2,12 41.1,12L41,12C39.9,12 39.1,12.4 38.3,12.8C37.5,13.2 36.7,13.5 35.7,13.4C35.5,13.4 35.2,13.4 35,13.3L34.8,13.3L34.8,13.7L34.9,13.7C35.2,13.8 35.4,13.8 35.7,13.8C36.8,13.9 37.6,13.5 38.5,13.1C39.3,12.8 40.1,12.4 41.1,12.4L41.2,12.4C42.3,12.4 43.4,12.8 44.5,13.6L44.6,13.7L44.7,13.6C45.8,12.8 46.9,12.4 48,12.4L48.1,12.4C49.1,12.4 49.9,12.8 50.7,13.1C51.5,13.5 52.2,13.8 53.2,13.8L53.5,13.8C53.8,13.8 54,13.7 54.3,13.7L54.4,13.7L54.4,13.3L54.2,13.3Z" style="fill:rgb(214,61,22);fill-rule:nonzero;"/>
            <path d="M72.4,11.4L72.4,69.5C72.4,71.5 71.2,73.4 69.4,74.2L44.4,86L19.4,74.1C17.5,73.2 16.4,71.4 16.4,69.4L16.4,11.4L72.4,11.4M73.7,10.2L15.1,10.2L15.1,69.4C15.1,71.9 16.6,74.2 18.9,75.3L44.4,87.5L69.9,75.4C72.2,74.3 73.7,72 73.7,69.5L73.7,10.2Z" style="fill-rule:nonzero;"/>
            <g>
                <path d="M43.5,97.5C43,97.5 42.2,97.4 41.7,97.5C41.6,97.5 41.6,97.4 41.6,97.4C41.8,97.2 41.9,97 41.9,96.8L41.9,95.2C41.9,95 41.7,94.9 41.5,94.7C41.5,94.6 41.6,94.6 41.6,94.6C42.2,94.6 42.9,94.7 43.4,94.6C43.6,94.6 43.7,94.6 43.8,94.7C43.8,94.9 43.9,95.1 43.9,95.3C43.6,95.4 43.6,95.1 43.5,95C43.2,94.8 42.8,94.8 42.4,94.8C42.3,94.8 42.3,94.9 42.3,94.9L42.3,95.6C42.6,95.6 43,95.7 43.2,95.4L43.4,95.4C43.5,95.6 43.4,95.6 43.4,95.7C43.4,95.9 43.4,96 43.3,96.1C43.2,96 43.1,95.7 42.8,95.8L42.3,95.8C42.3,96.1 42.2,96.5 42.3,96.8C42.5,97 43.2,97 43.5,96.8C43.6,96.7 43.7,96.4 43.8,96.4C43.9,96.4 43.9,96.6 43.9,96.6C43.9,97.1 43.9,97.5 43.5,97.5Z"/>
                <path d="M45.6,97.5C45.4,97.5 45.2,97.5 45,97.4C45,97.3 45.1,97.3 45.2,97.2C45.5,96.7 45.3,95.6 45.3,94.8C45.1,94.7 44.8,94.8 44.7,95C44.6,95.1 44.6,95.3 44.4,95.4C44.2,95.3 44.4,95.1 44.3,95C44.4,94.9 44.3,94.8 44.3,94.7C44.4,94.6 46.1,94.7 46.8,94.7C47.1,94.7 46.9,95 47,95.1C47,95.3 47.1,95.5 46.9,95.6C46.7,95.5 46.7,95.4 46.6,95.3C46.5,95.1 46.2,95.1 46,95.1C45.9,95 45.9,95.2 45.9,95.2C45.8,95.8 45.8,96.7 45.9,97.3C45.9,97.5 46.1,97.5 46.2,97.7C46.1,97.6 45.8,97.5 45.6,97.5Z"/>
            </g>
            <g>
                <path d="M40,92.9C39.8,92.9 39.5,93.2 39.5,93.4C39.2,93.8 39.1,94.1 38.8,94.5C38.5,95 38.3,95.6 37.8,95.8C37.5,95.9 37.4,96 37.1,95.8C36.4,95.7 35.2,95.1 35.2,94.4C35.2,93.9 35.5,93.4 35.8,92.9C36.1,92.4 36.6,91.9 36.4,91.3C36.3,91.2 36.2,91.2 36.3,91.1C36.3,91 36.5,91 36.6,91.1C36.8,91.2 37.2,91.4 37.4,91.5C37.5,91.6 37.8,91.6 37.7,91.8C37.5,91.9 37.1,92 37,92.1C36.5,92.8 36.2,93.5 35.9,94.2C35.8,94.5 36,94.8 36.2,95.1C36.4,95.2 36.8,95.4 37.1,95.4C37.9,95.4 38.4,94.1 38.7,93.5C38.8,93.2 39,92.8 38.8,92.4C38.7,92.3 38.8,92.3 38.8,92.3C39.2,92.4 39.5,92.6 39.9,92.7C40.1,92.8 40.1,92.9 40,92.9Z"/>
                <path d="M35.7,90.9C35.1,91.3 34.7,92 34.4,92.6C34.1,93 33.9,93.5 33.7,93.9C33.6,94 33.6,94.1 33.4,94.2C33.3,94.2 33.1,94.2 33,94.1C33,94.1 32.9,94 32.9,93.9C32.8,93.7 32.8,92.8 32.8,92.1C32.7,91.7 32.7,91.1 32.6,90.6C32.5,90.5 32.5,90.2 32.4,90.3C32,90.8 31.9,91.1 31.6,91.7C31.4,92.1 31.2,92.6 31.2,92.9C31.3,93 31.4,93.1 31.3,93.2C31.2,93.3 31,93.2 30.9,93.1C30.7,93 30.4,92.8 30.2,92.8C30.2,92.6 30.3,92.6 30.4,92.5C30.8,92.4 31,91.7 31.3,91.4C31.6,90.8 31.7,90.6 32,90.1C32.1,90 32.2,89.8 32.2,89.7C31.9,89.6 31.6,89.7 31.4,89.8C31.3,89.8 31.2,89.8 31.3,89.7C31.3,89.6 31.4,89.5 31.7,89.4C31.9,89.3 32.3,89.1 32.6,89.3C32.9,89.4 33.2,89.6 33.2,89.8C33.5,90.7 33.5,91.6 33.5,92.6C33.6,92.8 33.5,92.9 33.5,93.1C33.9,92.6 34.1,92.1 34.3,91.6C34.3,91.2 34.6,90.7 34.3,90.3C34.3,90.2 34.4,90.2 34.4,90.2C34.9,90.4 35.3,90.6 35.7,90.9C35.9,90.9 35.8,90.9 35.7,90.9Z"/>
                <path d="M29.7,92.3C29.4,92.2 28.9,91.9 28.5,91.7C28.4,91.7 28.3,91.6 28.4,91.5C28.5,91.4 28.6,91.5 28.6,91.5C29.1,91.2 29,90.8 29.1,90.4C28.7,90.2 28.2,89.9 27.9,89.7C27.5,90.1 27.2,90.6 27.3,91C27.2,91.2 27,91 26.9,91C26.7,90.9 26.5,90.8 26.3,90.6C26.2,90.6 26.1,90.6 26,90.5C26.1,90.3 26.3,90.5 26.6,90.4C27.6,89.7 28.3,88.9 29.1,88.1C29.2,88 28.8,88 28.6,87.9C28.4,87.9 28.2,88.1 28.2,88L28.2,87.9C28.7,87.6 29.2,87.4 29.8,87.6C30.3,87.9 30.3,88.5 30.3,89C30.3,89.3 30.1,91 30,91.5C30,91.7 30.1,91.9 30.1,92.2C29.9,92.2 29.8,92.3 29.7,92.3ZM29,89.9C28.8,89.9 28.3,89.7 28.1,89.5C28.4,89.1 28.8,88.8 29.2,88.5C29.3,88.6 29,89.8 29,89.9Z"/>
                <path d="M27.4,87.2C27.2,87.1 27.1,86.9 26.9,87C26.6,87.2 26.4,87.8 26.2,88.1C25.9,88.7 25.6,89.3 25.3,89.8C25.3,89.9 25.5,90.1 25.4,90.3L25.2,90.3C24.9,90.1 24.6,89.9 24.3,89.8C24.2,89.7 24.1,89.7 24.2,89.6C24.4,89.5 24.9,89.4 25,88.9C25.3,88.4 25.7,87.8 26,87.2L25.9,87.2C25,87.6 24.1,88.3 23.3,88.9C23.2,89 23.1,88.9 23.1,88.9C23.1,88.4 23.1,88 23.2,87.1C23.1,87 23.2,85.9 23.1,85.8C22.7,86.2 22.4,86.8 22.3,87.3C22.1,87.6 21.8,88.1 22,88.5C22,88.5 22,88.6 21.9,88.6C21.5,88.3 21.1,88.2 20.7,87.9L20.7,87.8C21.2,87.8 21.7,87.1 22,86.7C22.3,86.2 22.7,85.7 22.9,85.1C22.9,85 22.6,84.8 22.5,84.8C22.3,84.7 22.1,84.9 21.8,84.9C21.7,84.8 21.7,84.7 21.8,84.7C22,84.4 22.5,84.2 22.9,84.4C23.3,84.6 23.7,84.9 23.8,85.2C23.8,86.1 23.7,86.9 23.7,87.7L23.7,87.8C24.7,87.2 25.5,86.4 26.3,86.2C26.9,86.2 27.1,86.3 27.1,86.4C27.3,86.5 27.4,86.6 27.4,86.7C27.5,87.1 27.4,87.1 27.4,87.2Z"/>
            </g>
            <g>
                <path d="M67.9,88C67.3,88.3 66.3,88.7 65.7,89.1C65.6,89.1 65.5,89 65.5,89C65.6,88.7 65.6,88.4 65.5,88.1C65.1,87.4 64.8,86.8 64.4,86.1C64.3,85.9 63.9,85.8 63.6,85.7C63.6,85.6 63.7,85.6 63.7,85.6C64.4,85.2 65.3,84.9 65.9,84.5C66.1,84.4 66.3,84.2 66.5,84.3C66.7,84.6 67,84.7 67,85C66.7,85.2 66.6,85 66.4,84.9C65.9,84.9 65.4,85.1 65,85.4C64.9,85.4 64.9,85.5 65,85.6C65.1,85.9 65.3,86.2 65.4,86.5C65.8,86.3 66.3,86.2 66.3,85.8C66.4,85.7 66.4,85.7 66.5,85.7C66.7,85.9 66.6,86 66.8,86.1C66.9,86.3 67.1,86.5 67,86.7C66.8,86.7 66.5,86.4 66.2,86.6C66,86.7 65.8,86.7 65.6,87C65.8,87.4 65.9,87.9 66.3,88.2C66.7,88.3 67.5,87.9 67.7,87.4C67.8,87.2 67.6,86.8 67.8,86.7C67.9,86.7 68,86.9 68,86.9C68.1,87.2 68.2,87.7 67.9,88Z"/>
                <path d="M63.7,90C63.5,90.1 63.2,90.3 63,90.3C62.9,90.2 63,90.1 63.1,90C63.1,89.3 62.2,88 61.6,87C61.4,87 61,87.4 60.9,87.6C60.8,87.8 61,88 60.8,88.2C60.5,88.2 60.5,87.8 60.4,87.7C60.4,87.5 60.3,87.4 60.2,87.3C60.2,87.1 62.3,86.1 63.1,85.7C63.4,85.5 63.5,86 63.6,86C63.7,86.2 64,86.4 63.8,86.6C63.5,86.6 63.5,86.4 63.2,86.4C63,86.2 62.6,86.4 62.4,86.5C62.2,86.5 62.3,86.7 62.3,86.7C62.6,87.5 63.2,88.5 63.7,89.2C63.8,89.4 64.1,89.3 64.3,89.5C64.3,89.8 64,89.8 63.7,90Z"/>
                <path d="M61,91.1C59.9,90.5 58.8,89.9 57.7,89.3C58.1,90.2 58.4,91 59.2,91.6C59.2,91.8 59.5,91.7 59.4,91.9C59.3,92 59,92 58.9,92.2C58.6,92.2 58.4,92.6 58.3,92.3C58.5,91.5 57.9,90.7 57.6,90C57.5,89.7 57.3,89.4 57.2,89.2C56.8,89.3 56.7,89.8 56.6,90.1C56.5,90.2 56.3,90 56.2,90C56.1,89.8 55.8,89.7 55.5,89.8C55.2,89.9 54.9,90.1 54.6,90.2C54.8,90.6 54.9,91 55.2,91.3C55.2,91.4 55.3,91.3 55.3,91.3C55.7,91.2 56,91 56.1,90.7L56.2,90.7C56.4,90.9 56.6,91.1 56.7,91.3C56.5,91.3 56.4,91.2 56.3,91.3C56,91.4 55.7,91.5 55.4,91.7C55.6,92.1 55.8,92.5 56.1,92.9C56.2,93.1 56.5,92.9 56.8,92.9C57.4,92.6 57.6,92 57.5,91.4C57.6,91.4 57.7,91.3 57.7,91.4C57.9,91.7 58,92 58.1,92.2C58.1,92.4 58.3,92.5 58,92.5C57.2,92.9 56.6,93.2 55.8,93.6C55.6,93.6 55.5,93.7 55.3,93.9C55.2,93.8 55.2,93.9 55.2,93.8C55.1,93.8 55.2,93.7 55.2,93.6C55.3,92.9 54.9,92.4 54.5,91.5C54.4,91.3 53.9,90.5 53.6,90.5C53.5,90.5 53.5,90.6 53.5,90.7L53.5,90.9C53.4,90.8 53.2,90.8 53,91L53,91.1C53.1,91.5 53.2,91.9 53.5,92.3C53.9,92.9 54.1,93.6 54.8,94.1C54.9,94.2 54.8,94.2 54.7,94.3C54.4,94.5 54,94.5 53.7,94.7C53.5,94.5 53.6,94.3 53.6,94.1C53.5,93.7 53.4,93.4 53.1,93C52.9,92.5 52.8,92.2 52.5,91.8C52.4,92 52.4,92.2 52.4,92.5C52.4,93.2 52.4,93.9 52.5,94.7C52.5,94.7 52.4,94.7 52.4,94.8C52.3,94.8 52.2,94.7 52.2,94.6C51.5,94.2 50.5,93.2 49.8,92.8C49.8,92.8 49.8,93.1 49.9,93.1C50.3,93.9 50.5,94.5 51,95.2C51.1,95.4 51.4,95.5 51.6,95.5C51.5,95.5 51.6,95.6 51.5,95.6C51.3,95.7 51.2,95.7 51,95.9C50.8,95.9 50.5,96.3 50.4,96.1C50.6,95.6 50.2,94.9 50.1,94.5C49.8,93.9 49.5,93.5 49.3,92.9L49.2,92.9C49,93 49.1,93.3 49,93.6C48.9,93.7 48.9,93.7 48.8,93.7C48.8,93.5 48.7,93.2 48.8,93C48.8,92.7 48.9,92.4 49.2,92.2C49.5,92.1 50,91.9 50.2,92.2C50.9,92.7 51.4,93.3 52.1,93.7L52.2,93.6C52.1,92.9 52.1,92.2 52.1,91.6C52.1,91.3 52.1,91 52.5,90.7C52.6,90.6 52.9,90.6 53.1,90.6C53.2,90.5 53.4,90.3 53.5,90.2C54.3,89.8 55,89.4 55.8,89.1L55.9,89.1C56,89.3 56.1,89.5 56.3,89.5C56.4,89.3 56.3,89.1 56.5,88.9C56.8,88.6 57.4,88.4 57.8,88.6C58.6,88.8 60,89.8 60.5,90C60.2,89.4 59.9,88.9 59.7,88.5C59.6,88.4 59.3,88 59,88C58.9,88 58.9,87.9 58.9,87.9C59.3,87.8 59.7,87.5 60.1,87.3C60.3,87.4 60,87.6 60.1,87.8C60.3,88.6 60.7,89.2 61,89.9C61.3,90.2 61.4,90.6 61.6,90.8C61.6,91 61.1,91.2 61,91.1Z"/>
            </g>
            <g>
                <path d="M37.9,17.8C37.9,18.2 37.5,18.5 37.1,18.5C36.8,18.5 36.5,18.3 36.3,18.1L36.3,18L36.5,17.8L36.6,17.8C36.8,17.9 36.9,18 37.1,18C37.3,18 37.5,17.9 37.5,17.7C37.5,17.3 36.4,17.4 36.4,16.7C36.4,16.3 36.7,16.1 37.1,16.1C37.4,16.1 37.6,16.2 37.8,16.4L37.8,16.5L37.6,16.7L37.5,16.7C37.3,16.6 37.2,16.5 37.1,16.5C36.9,16.5 36.8,16.6 36.8,16.7C36.8,17.2 37.9,17 37.9,17.8Z" style="fill-rule:nonzero;"/>
                <path d="M40.5,18.1C40.3,18.4 40,18.5 39.7,18.5C39,18.5 38.5,18 38.5,17.3C38.5,16.7 39,16.1 39.7,16.1C40,16.1 40.3,16.2 40.5,16.4L40.5,16.5L40.3,16.7L40.2,16.7C40.1,16.6 39.9,16.5 39.7,16.5C39.3,16.5 39,16.8 39,17.2C39,17.6 39.3,17.9 39.7,17.9C39.9,17.9 40.1,17.8 40.2,17.7L40.3,17.7L40.5,18.1Z" style="fill-rule:nonzero;"/>
                <path d="M41.3,16.2L41.7,16.2L41.7,18.4L41.3,18.4L41.3,16.2C41.2,16.2 41.2,16.2 41.3,16.2Z" style="fill-rule:nonzero;"/>
                <path d="M43.8,18.1L43.8,18.4L42.6,18.4L42.6,16.2L43.8,16.2L43.8,16.5L43,16.5L43,17L43.9,17L43.9,17.3L43.8,17.3L43,17.3L43,17.9L43.8,18.1Z" style="fill-rule:nonzero;"/>
                <path d="M46.5,16.2L46.5,18.4L46,18.4L45.9,18.4L45,16.9L45,18.4L44.9,18.4L44.5,18.4L44.5,16.2L45,16.2L45.9,17.7L45.9,16.2L46.5,16.2Z" style="fill-rule:nonzero;"/>
                <path d="M48.7,16.2L48.7,16.5L48.2,16.5L48.2,18.3L47.8,18.3L47.8,16.5L47.3,16.5L47.3,16.2L48.7,16.2Z" style="fill-rule:nonzero;"/>
                <path d="M49.4,16.2L49.8,16.2L49.8,18.4L49.4,18.4L49.4,16.2C49.3,16.2 49.4,16.2 49.4,16.2Z" style="fill-rule:nonzero;"/>
                <path d="M52.5,18.4L52.1,18.4L52,18.4L51.9,18L51,18L50.9,18.4L50.8,18.4L50.4,18.4C50.4,18.4 50.3,18.4 50.4,18.3L51.2,16.1L51.7,16.1L52.5,18.4ZM51.8,17.6L51.5,16.7L51.2,17.6L51.8,17.6Z" style="fill-rule:nonzero;"/>
            </g>
            <path d="M44.4,37.2L43.7,35.5L41.9,36.2L42.7,34.5L40.9,33.8L42.7,33.1L41.9,31.4L43.7,32.1L44.4,30.4L45.1,32.1L46.9,31.4L46.1,33.1L47.9,33.8L46.1,34.5L46.9,36.2L45.1,35.5L44.4,37.2Z" style="fill:white;fill-rule:nonzero;"/>
            <path d="M44.4,76.9L43.7,75.2L41.9,75.9L42.7,74.2L40.9,73.5L42.7,72.8L41.9,71.1L43.7,71.8L44.4,70.1L45.1,71.8L46.9,71.1L46,72.9L47.8,73.6L46,74.2L46.8,75.9L45,75.2L44.4,76.9Z" style="fill:white;fill-rule:nonzero;"/>
            <path d="M66.5,57.7L65.8,56L64,56.7L64.8,55L63,54.3L64.8,53.6L64,51.9L65.8,52.6L66.5,50.9L67.2,52.6L69,51.9L68.2,53.6L70,54.3L68.2,55L69,56.7L67.2,56L66.5,57.7Z" style="fill:white;fill-rule:nonzero;"/>
            <path d="M22.5,57.7L21.8,56L20,56.7L20.8,55L19,54.3L20.8,53.6L20,51.9L21.8,52.6L22.5,50.9L23.2,52.6L25,51.9L24.2,53.6L26,54.3L24.2,55L25,56.7L23.2,56L22.5,57.7Z" style="fill:white;fill-rule:nonzero;"/>
        </g>
        <g>
            <g>
                <path d="M122.4,47.5C122.3,58.3 117,63.7 107.2,63.7C97.5,63.7 91.8,59.3 91.8,49.3L91.8,39.1C91.8,33.4 91.2,28.8 91,26.4C92.2,26.6 94,26.7 95.1,26.7C96.2,26.7 97.4,26.6 98.4,26.4C97.9,31.4 97.7,38.1 97.7,45C97.7,55 99.5,60.6 108.8,60.6C118.8,60.6 119,50.7 119,42.5C119,35.1 118.9,29.8 118.6,26.4C119.4,26.6 120.2,26.7 121,26.7C121.7,26.7 122.4,26.6 123.1,26.4C122.9,30.4 122.5,39.1 122.4,47.5" style="fill:white;fill-rule:nonzero;"/>
                <path d="M156.7,44.2C156.6,49.8 156.6,58.4 156.7,63.4C156.3,63.3 155.8,63.2 155.4,63.2C155,63.2 154.5,63.3 154.2,63.4C146.6,54.4 138,45.1 129.4,36.1C129.3,39 129.2,42.8 129.2,47.5C129.2,54 129.4,61 129.6,63C128.9,62.8 128.1,62.7 127.5,62.7C126.8,62.7 126,62.8 125.3,63C125.7,61 126.4,47.5 126.4,38.7C126.4,33 126.3,28.9 126.2,26.5C126.6,26.6 127.2,26.6 127.6,26.6C128,26.6 128.6,26.5 129,26.5C137,35.3 146.6,45.7 153.7,53.1C153.7,44.2 153.7,32 153.3,26.8C154,27 154.7,27.1 155.4,27.1C156.1,27.1 156.7,27 157.4,26.8C157.1,31.9 156.7,39.7 156.7,44.2" style="fill:white;fill-rule:nonzero;"/>
                <path d="M170,63.9C165.4,63.9 160.7,61.7 158.4,60.1C159.3,59.4 159.7,59.2 160.7,57.8C161.4,56.8 161.9,55.2 161.9,55.2C162.8,58 165.7,60.7 170.8,60.7C175.9,60.7 179.5,56.9 179.5,53.3C179.5,44.5 160.2,48.5 160.2,36.4C160.2,29.8 166,26.2 173.7,26.2C177.8,26.2 181.2,27.5 183.6,29.1C182.5,30 182.3,30 181.7,31.1C181.2,31.9 180.5,33.6 180.5,33.6C179.5,31.1 177.3,28.9 173.2,28.9C169,28.9 166.1,31.5 166.1,34.7C166.1,43.5 186.2,40 186.1,51.4C186,60.1 179.6,63.9 170,63.9" style="fill:white;fill-rule:nonzero;"/>
                <path d="M222.9,63C222.2,62.9 221.4,62.7 220.7,62.7C220,62.7 219.2,62.9 218.5,63C216,53.8 213.1,44.6 209.9,35.1L209.8,35.1C207.9,41.1 203.2,54.4 200.6,63C199.9,62.9 199.2,62.7 198.4,62.7C197.7,62.7 196.9,62.9 196.2,63C194.7,57.3 192.6,49 189.8,40.1C189,37.3 185.9,28.7 185,26.8C186.2,27 187.9,27.1 189,27.1C190.1,27.1 191.2,27 192.3,26.8C194.6,36.6 197,45.3 200,55.6L200.1,55.6C202.5,48.3 207.9,31.9 209.2,26.8C209.9,27 210.6,27.1 211.3,27.1C212,27.1 212.7,27 213.4,26.8C214.6,32 220.4,49.4 222.2,55.6L222.3,55.6C224.4,48.8 229.6,31.1 230.5,26.8C231.1,27 231.8,27.1 232.4,27.1C233.1,27.1 233.7,27 234.4,26.8C233,31.3 225.3,54.5 222.9,63" style="fill:white;fill-rule:nonzero;"/>
            </g>
            <g>
                <path d="M127.2,73.1C126.9,72.9 126.5,72.7 126.2,72.6C125.9,72.5 125.6,72.3 125.3,72.2C125,72.1 124.8,71.9 124.6,71.7C124.4,71.5 124.4,71.3 124.4,70.9C124.4,70.7 124.4,70.5 124.5,70.4C124.6,70.2 124.7,70.1 124.8,70C124.9,69.9 125.1,69.8 125.2,69.7C125.5,69.6 126,69.6 126.2,69.7C126.3,69.8 126.5,69.9 126.6,70C126.7,70.1 126.8,70.2 126.8,70.3C126.9,70.4 126.9,70.6 127,70.7L127.1,70.9L127.7,70.9L127.7,70.7C127.7,70.5 127.8,70.3 127.8,70.1C127.8,70 127.9,69.8 128,69.7L128.1,69.5L127.9,69.3C127.6,69.1 127.3,68.9 127,68.8C126.3,68.6 125.3,68.6 124.6,68.8C124.2,68.9 123.9,69.1 123.6,69.4C123.3,69.6 123.1,70 123,70.3C122.9,70.6 122.8,71 122.8,71.4C122.8,72 122.9,72.5 123.2,72.8C123.4,73.1 123.7,73.4 124,73.7C124.3,73.9 124.7,74.1 125,74.2C125.3,74.3 125.7,74.5 125.9,74.6C126.2,74.7 126.4,74.9 126.6,75.1C126.8,75.3 126.8,75.5 126.8,75.9C126.8,76.1 126.8,76.3 126.7,76.5C126.6,76.7 126.5,76.9 126.4,77C126.3,77.1 126.1,77.3 125.9,77.3C125.5,77.5 125,77.5 124.6,77.3C124.4,77.2 124.2,77.1 124.1,77C124,76.9 123.8,76.8 123.7,76.6C123.6,76.5 123.5,76.3 123.5,76.2L123.4,76L122.8,76L122.8,76.3C122.8,76.5 122.7,76.7 122.7,76.9C122.7,77 122.6,77.2 122.6,77.4L122.5,77.6L122.7,77.7C122.9,77.9 123.2,78.1 123.6,78.2C124,78.4 124.4,78.4 125,78.4C125.5,78.4 126,78.3 126.4,78.2C126.8,78 127.2,77.8 127.5,77.5C127.8,77.2 128,76.8 128.2,76.4C128.4,76 128.4,75.6 128.4,75.1C128.4,74.6 128.3,74.1 128,73.8C127.8,73.6 127.5,73.3 127.2,73.1Z" style="fill:white;fill-rule:nonzero;"/>
                <path d="M141.8,68.6L141.6,68.5L141.5,68.7C141.3,69.1 141.1,69.5 141,69.9L139.5,72.9C139.1,72.3 138.8,71.6 138.5,71C138.1,70.3 137.7,69.5 137.3,68.7L137.2,68.5L136.6,68.6L136,68.6L135,68.5L135.3,69.1C135.4,69.2 135.5,69.4 135.7,69.7L138.1,73.8C138.2,74 138.4,74.2 138.4,74.4L138.4,76.4C138.4,77 138.4,77.6 138.3,78L138.3,78.4L140.3,78.4L140.3,78L140.3,74.2C140.4,73.9 140.6,73.7 140.8,73.4C141,73.1 141.2,72.7 141.5,72.3C141.7,71.9 142,71.4 142.4,70.9C142.7,70.4 143.1,69.8 143.5,69.2L143.9,68.6L143.2,68.8C142.2,68.7 142.3,68.7 141.8,68.6Z" style="fill:white;fill-rule:nonzero;"/>
                <path d="M158,69.9C157.6,69.5 157.1,69.2 156.6,68.9C155.8,68.6 154.7,68.5 153.6,68.6L150.7,68.6L150.4,68.6L150.5,70.7L150.5,76.4C150.5,77 150.5,77.5 150.4,78.1L150.4,78.4L153.3,78.4C154.1,78.4 154.9,78.4 155.8,78.2C156.4,78 156.9,77.8 157.4,77.4C157.9,77 158.3,76.5 158.6,75.8C158.9,75.2 159.1,74.4 159.1,73.4C159.1,72.7 159,72 158.8,71.5C158.7,70.8 158.4,70.3 158,69.9ZM156.9,75.3C156.7,75.8 156.4,76.2 156.1,76.5C155.8,76.8 155.4,77 155,77.1C154.2,77.3 153.4,77.3 152.7,77.2L152.2,77.2C152.2,76.4 152.1,75.5 152.1,74.6L152.1,72.3L152.1,69.8C152.3,69.8 152.5,69.8 152.7,69.7C153.5,69.6 154.4,69.6 155.2,69.8C155.6,69.9 155.9,70.1 156.2,70.3C156.5,70.6 156.7,70.9 156.9,71.4C157.1,71.9 157.2,72.5 157.2,73.2C157.2,74.1 157.1,74.8 156.9,75.3Z" style="fill:white;fill-rule:nonzero;"/>
                <path d="M174.4,68.7C174.3,68.7 174.2,68.7 174,68.6L173.6,68.5L173.6,68.9C173.6,69.7 173.7,70.5 173.7,71.4L173.7,75.1C173.4,74.8 173.2,74.5 172.9,74.2L171.2,72.4C170.6,71.7 170,71.1 169.4,70.4L167.6,68.4L167,68.4L167,74.4C167,74.8 167,75.2 166.9,75.6L166.8,76.7C166.8,77 166.8,77.3 166.7,77.5C166.7,77.7 166.7,77.9 166.6,78L166.5,78.4L166.9,78.3L167.7,78.3L168.1,78.4L168,78L168,77.6L167.9,76L167.9,75.1L167.9,74.2L167.9,71.6C168.8,72.6 169.8,73.7 170.7,74.7C171.8,75.9 172.9,77.1 173.9,78.3L174,78.4L174.6,78.4L174.6,77.7L174.6,76.9L174.6,75L174.6,74.1L174.6,73.3L174.6,72.3C174.6,71.9 174.6,71.4 174.7,71C174.7,70.6 174.7,70.1 174.8,69.8C174.8,69.4 174.8,69.1 174.9,68.9L174.9,68.5L174.5,68.6C174.5,68.7 174.4,68.7 174.4,68.7Z" style="fill:white;fill-rule:nonzero;"/>
                <path d="M188.5,77.4L188.6,76.9L188.1,77C187.9,77 187.7,77.1 187.4,77.1C187.1,77.1 186.8,77.1 186.5,77.2L185.6,77.2L185,77.2L185,75.6L185,74.3L185,74L187,74C187.3,74 187.5,74 187.8,74.1L188.2,74.2L188.1,73.8L188.1,73.1L188.2,72.7L187.8,72.7L187.2,72.7L186.5,72.7L185,72.7L185,69.9L186.6,69.9L187.3,70C187.5,70 187.8,70 188.1,70.1L188.5,70.1L188.4,69.7L188.4,69.1L188.5,68.7L187,68.8L183.5,68.8L183.2,68.8L183.2,69.1C183.2,69.7 183.2,70.2 183.3,70.8L183.3,76.5C183.3,77.1 183.3,77.6 183.2,78.2L183.2,78.5L188.5,78.5L188.4,78.1L188.4,77.8L188.4,77.6C188.5,77.5 188.5,77.4 188.5,77.4Z" style="fill:white;fill-rule:nonzero;"/>
                <path d="M202.8,68.6C202.3,68.7 202.4,68.7 201.9,68.6L201.7,68.5L201.6,68.7C201.4,69.1 201.2,69.5 201.1,69.9L199.6,72.9C199.2,72.3 198.9,71.6 198.6,71C198.2,70.3 197.8,69.5 197.4,68.7L197.3,68.5L196.7,68.6L196.1,68.6L195.1,68.5L195.4,69.1C195.5,69.2 195.6,69.4 195.8,69.7L198.2,73.8C198.3,74 198.5,74.2 198.5,74.4L198.5,76.4C198.5,77 198.5,77.6 198.4,78L198.4,78.4L200.4,78.4L200.4,78L200.4,74.2C200.5,73.9 200.7,73.7 200.9,73.4C201.1,73.1 201.3,72.7 201.6,72.3C201.8,71.9 202.1,71.4 202.5,70.9C202.8,70.4 203.2,69.8 203.6,69.2L204,68.6L202.8,68.6Z" style="fill:white;fill-rule:nonzero;"/>
            </g>
        </g>
    </g>
    <defs>
        <radialGradient id="_Radial2" cx="0" cy="0" r="1" gradientUnits="userSpaceOnUse" gradientTransform="matrix(16.7066,0,0,16.1427,44.578,53.4072)"><stop offset="0" style="stop-color:rgb(247,239,206);stop-opacity:1"/><stop offset="0.75" style="stop-color:rgb(199,178,58);stop-opacity:1"/><stop offset="0.97" style="stop-color:rgb(184,163,0);stop-opacity:1"/><stop offset="1" style="stop-color:rgb(184,163,0);stop-opacity:1"/></radialGradient>
    </defs>
</svg>
